<svg width="67" height="64" viewBox="0 0 67 64" fill="none" xmlns="http://www.w3.org/2000/svg">
<path d="M34.8958 16.0022C34.9926 16.0022 35.0907 15.9931 35.1875 15.9723C42.4829 14.4866 47.5292 8.46187 47.4583 1.32255C47.4542 0.922814 47.262 0.54521 46.9348 0.29521C46.6077 0.0439077 46.181 -0.0576547 45.7707 0.0321891C38.4753 1.51787 33.4291 7.5426 33.4999 14.6819C33.504 15.0817 33.6962 15.4593 34.0234 15.7093C34.2728 15.9007 34.5809 16.0022 34.8958 16.0022Z" fill="black" fill-opacity="0.31"/>
<path opacity="0.2" d="M34.4596 15.5986C34.3887 8.45927 39.435 2.43453 46.7304 0.948856C46.9454 0.901818 47.1627 0.912886 47.37 0.964969C47.2898 0.707319 47.1592 0.466759 46.9348 0.29521C46.6077 0.0439077 46.181 -0.0576547 45.7707 0.0321891C38.4753 1.51787 33.4291 7.54261 33.4999 14.6819C33.504 15.0817 33.6962 15.4593 34.0234 15.7093C34.1779 15.8278 34.358 15.8986 34.5451 15.9454C34.5105 15.8309 34.4608 15.7202 34.4596 15.5986Z" fill="black" fill-opacity="0.31"/>
<path d="M60.4965 44.0817C55.3739 42.3109 53.0416 37.2692 53.0416 33.3356C53.0416 29.1025 55.348 25.2627 59.2111 23.0635C59.5709 22.859 59.8149 22.5114 59.8776 22.1156C59.939 21.721 59.8122 21.32 59.5328 21.0231C55.1231 16.363 49.1758 16.001 47.4583 16.001C44.7361 16.001 42.7937 16.7054 40.9166 17.3864C39.0982 18.0465 37.3807 18.6689 34.8958 18.6689C32.4108 18.6689 30.6933 18.0465 28.8749 17.3864C26.9978 16.7054 25.0554 16.001 22.3333 16.001C20.6184 16.001 5.58325 16.5244 5.58325 34.6689C5.58325 49.5062 16.1815 63.9997 22.3333 63.9997C26.0995 63.9997 28.2655 63.1585 30.178 62.4163C31.672 61.8369 32.9642 61.3356 34.8958 61.3356C36.8273 61.3356 38.1195 61.8369 39.6135 62.4163C41.526 63.1585 43.692 63.9997 47.4583 63.9997C52.4582 63.9997 58.3468 54.5947 61.3484 45.7471C61.5802 45.0635 61.2039 44.3265 60.4965 44.0817Z" fill="black" fill-opacity="0.31"/>
<path opacity="0.2" d="M6.57202 35.6133C6.57202 17.4687 21.6072 16.9453 23.322 16.9453C26.0442 16.9453 27.9866 17.6497 29.8636 18.3307C31.682 18.9909 33.3996 19.6133 35.8845 19.6133C38.3695 19.6133 40.087 18.9909 41.9054 18.3307C43.7824 17.6497 45.7249 16.9453 48.447 16.9453C50.0483 16.9453 55.3132 17.3071 59.5938 21.1266C59.5685 21.0944 59.5612 21.0532 59.5328 21.0231C55.1231 16.363 49.1758 16.001 47.4583 16.001C44.7361 16.001 42.7937 16.7054 40.9166 17.3864C39.0982 18.0465 37.3807 18.6689 34.8958 18.6689C32.4108 18.6689 30.6933 18.0465 28.8749 17.3864C26.9978 16.7054 25.0554 16.001 22.3333 16.001C20.6184 16.001 5.58325 16.5244 5.58325 34.6689C5.58325 45.4775 11.207 56.0758 16.6393 61.0495C11.5348 55.7521 6.57202 45.7659 6.57202 35.6133Z" fill="black" fill-opacity="0.31"/>
<path d="M34.8958 16.0022C34.9925 16.0022 35.0907 15.9931 35.1875 15.9723C42.4829 14.4866 47.5291 8.46188 47.4583 1.32255C47.4542 0.922814 47.262 0.54521 46.9348 0.29521C46.6077 0.0439077 46.181 -0.0576547 45.7707 0.0321891C38.4753 1.51787 33.429 7.54261 33.4999 14.6819C33.504 15.0817 33.6962 15.4593 34.0233 15.7093C34.2728 15.9007 34.5809 16.0022 34.8958 16.0022ZM60.4965 44.0817C55.3739 42.3108 53.0416 37.2692 53.0416 33.3356C53.0416 29.1025 55.348 25.2627 59.2111 23.0634C59.5709 22.859 59.8149 22.5114 59.8776 22.1155C59.939 21.721 59.8122 21.3199 59.5328 21.0231C55.1231 16.3629 49.1758 16.0009 47.4583 16.0009C44.7361 16.0009 42.7937 16.7054 40.9166 17.3864C39.0982 18.0465 37.3807 18.6689 34.8958 18.6689C32.4108 18.6689 30.6933 18.0465 28.8749 17.3864C26.9978 16.7054 25.0554 16.0009 22.3333 16.0009C20.6184 16.0009 5.58325 16.5244 5.58325 34.6689C5.58325 49.5061 16.1815 63.9996 22.3333 63.9996C26.0995 63.9996 28.2655 63.1585 30.178 62.4163C31.672 61.8369 32.9642 61.3356 34.8958 61.3356C36.8273 61.3356 38.1195 61.8369 39.6135 62.4163C41.526 63.1585 43.692 63.9996 47.4583 63.9996C52.4582 63.9996 58.3468 54.5947 61.3484 45.747C61.5802 45.0634 61.2039 44.3265 60.4965 44.0817Z" fill="black" fill-opacity="0.31"/>
</svg>
