<svg width="77" height="72" viewBox="0 0 77 72" fill="none" xmlns="http://www.w3.org/2000/svg">
<path fill-rule="evenodd" clip-rule="evenodd" d="M37.9658 33.0692V29.3262H25.0645C23.1601 29.3262 21.5502 30.5641 21.1094 32.2221V29.3446H13.4087L10.7843 33.0676H20.9906L37.9658 33.0692ZM42.6272 29.3449H38.6047V33.0676H42.6272V29.3449ZM55.1932 29.3449H51.1715V33.0676H55.1932V29.3449ZM3.91345 42.8141H8.88913L15.25 33.5451L10.6239 33.2953L3.91345 42.8141ZM59.3104 29.3262C57.094 29.3262 55.2764 31.0034 55.2364 33.0675L73.0864 33.0692V29.3262H59.3104ZM69.0115 34.654L68.2498 34.6227C63.93 34.4449 59.6233 34.2414 55.3089 34.0333C55.6445 35.6162 57.0732 36.9341 59.3104 37.2172L68.715 37.7566C69.1022 37.7566 69.4182 38.0525 69.4182 38.4141C69.4182 38.7756 69.1022 39.0716 68.715 39.0716H55.1932V34.0278L51.1715 33.8338V38.1477C51.1715 38.752 50.643 39.2453 49.9977 39.2453H43.801C43.1547 39.2453 42.6272 38.752 42.6272 38.1477V33.4217L38.6047 33.2277V37.5039C38.1449 35.8862 36.5479 34.72 34.6629 34.72L16.949 33.637V42.8144H34.6629C36.6388 42.8144 38.2974 41.4821 38.663 39.7306C38.9856 41.4763 40.6184 42.8144 42.5694 42.8144H51.2292C53.1638 42.8144 54.7865 41.498 55.127 39.7732V42.8144H69.0115C71.2527 42.8144 73.0865 41.1004 73.0865 39.004V38.4645C73.0865 36.3687 71.2527 34.654 69.0115 34.654ZM34.367 39.0715H21.1094V34.2254C21.5168 35.7217 22.9189 36.9457 25.0645 37.2171L34.367 37.7565C34.7538 37.7565 35.0702 38.0524 35.0702 38.4139C35.0702 38.7755 34.7538 39.0715 34.367 39.0715Z" fill="black" fill-opacity="0.31"/>
</svg>
