<svg width="34" height="34" viewBox="0 0 34 34" fill="none" xmlns="http://www.w3.org/2000/svg">
<path fill-rule="evenodd" clip-rule="evenodd" d="M31.9359 32.4507C31.8797 30.5969 29.5598 27.5662 27.548 27.3007C25.5606 27.0438 24.0962 25.9729 22.9259 24.9601C22.6397 24.7123 22.3816 24.5927 22.1376 24.5927C21.8477 24.5927 21.5914 24.7587 21.3541 25.1016C20.7219 26.0145 19.8841 26.7461 19.0738 27.4545C18.6521 27.8231 18.2158 28.2038 17.8137 28.606C17.6618 28.7548 17.5367 28.8238 17.4198 28.8238C17.3085 28.8238 17.195 28.759 17.0732 28.6255C16.6546 28.1642 16.1555 27.7829 15.6725 27.4142C15.3833 27.1934 15.0941 26.9725 14.8192 26.7333C13.4511 25.5459 12.8833 24.2077 13.0835 22.6414C13.0896 22.5913 13.0896 22.5358 13.0896 22.4796C13.0893 22.3704 13.0893 22.2569 13.1421 22.2045C13.1698 22.1764 13.214 22.163 13.2775 22.163C13.3044 22.163 13.3342 22.1653 13.3675 22.1703C13.473 22.1873 13.5765 22.1989 13.6738 22.1989C14.0116 22.1989 14.2242 22.0519 14.3237 21.7493C14.4906 21.2257 14.1211 20.9463 13.795 20.7004L13.7312 20.6521C12.3992 19.6478 11.3725 18.3249 10.5927 16.6087C10.0759 15.4717 10.0232 14.3321 10.4363 13.2213C11.0944 11.4213 11.9035 10.2207 13.0997 9.29781C13.2959 9.14461 13.4143 9.05224 13.5214 9.05224C13.6175 9.05224 13.7294 9.12668 13.9211 9.31826C16.5403 11.9174 18.9779 13.5664 21.5926 14.5076C22.2088 14.7304 22.4005 15.062 22.2754 15.6907L22.1948 16.1207C21.8983 17.7148 21.6176 19.2208 20.3246 20.3496C20.1446 20.5059 20.0403 20.701 20.0311 20.9012C20.0225 21.0806 20.0939 21.2539 20.2361 21.4009C20.3716 21.5413 20.5284 21.6126 20.7023 21.6126C20.8879 21.6126 21.0868 21.5321 21.296 21.3734C22.024 20.8218 22.5555 20.1073 22.8758 19.2499C23.3383 18.0204 23.6129 16.8619 23.7155 15.7078C23.7533 15.2517 23.8039 14.9625 24.1927 14.7882C24.5277 14.6402 24.6673 14.34 24.5661 13.9846C24.4807 13.6923 24.2494 13.5238 23.9156 13.5102C22.2522 13.436 20.8488 12.7355 19.2526 11.707C16.4365 9.89387 14.339 8.12162 13.255 5.36443C13.0805 4.91141 12.8468 4.69141 12.5402 4.69141C12.4398 4.69141 12.3312 4.71611 12.2174 4.76492C12.0157 4.85211 11.88 4.98306 11.8144 5.15386C11.7329 5.36649 11.7635 5.63989 11.9029 5.94403C12.1088 6.39346 12.3453 6.8346 12.5958 7.30197C12.7133 7.52104 12.8344 7.74682 12.9579 7.98389C12.5784 8.08125 12.1854 8.21426 11.8422 8.48427C10.0843 9.85476 9.08418 11.742 8.78488 14.2548C8.51547 16.4957 9.64976 18.3107 10.9159 19.938C11.6943 20.94 11.6356 22.0761 11.5789 23.1744C11.5493 23.7444 11.5191 24.3344 11.6046 24.9049C11.6097 24.933 11.5368 25.0074 11.4929 25.052C11.4553 25.0904 11.4175 25.1295 11.3894 25.1673C10.6157 26.2204 9.68548 27.209 8.13158 27.3115C7.73713 27.3347 7.34566 27.4518 6.96708 27.5653C6.69156 27.6483 6.40661 27.7337 6.12531 27.7813C4.33048 28.0754 3.13172 29.1365 2.46082 31.0251C2.42237 31.1331 2.37143 31.2497 2.31864 31.3693C2.15236 31.7482 1.96416 32.1772 2.10421 32.5128C2.17593 32.6848 2.32907 32.8178 2.5597 32.9058C2.67318 32.9497 2.77937 32.971 2.87513 32.971C3.36573 32.971 3.52039 32.4383 3.65706 31.9684C3.69551 31.8366 3.73243 31.7085 3.77546 31.5999C4.30691 30.2501 5.17922 29.4661 6.44194 29.203C7.10434 29.0652 7.76236 28.9041 8.42018 28.7442C8.81164 28.649 9.20304 28.5538 9.59537 28.4623C9.73449 28.4305 9.8596 28.4147 9.97767 28.4147C10.3181 28.4147 10.5973 28.5477 10.8566 28.8333C11.5049 29.552 12.1838 30.2599 12.84 30.9458C13.1911 31.3119 13.5426 31.6786 13.8914 32.049C14.3338 32.5195 14.6675 32.7202 15.0077 32.7202C15.3342 32.7202 15.6777 32.5279 16.1213 32.0953L16.2473 31.9727C16.7434 31.4864 17.0167 31.2185 17.2337 31.2185C17.4662 31.2185 17.699 31.5327 18.1627 32.1601L18.2469 32.2736C18.3567 32.4273 18.4867 32.6006 18.6496 32.7282C18.8205 32.8582 19.0218 32.9332 19.2024 32.9332C19.3855 32.9332 19.5331 32.8593 19.632 32.719C20.0116 32.1625 20.5302 31.7152 21.0331 31.2826C21.6579 30.7444 22.3047 30.188 22.6817 29.4178C23.107 28.5472 23.6739 28.1413 24.4641 28.1413C24.7418 28.1413 25.0456 28.1914 25.3922 28.2927C25.5851 28.3506 25.7877 28.3848 25.978 28.4129C28.4243 28.7356 29.8905 30.1366 30.4617 32.697C30.5483 33.0948 30.7094 33.5501 31.1933 33.5501C31.2415 33.5501 31.2927 33.5459 31.3477 33.536C31.9603 33.4245 31.9444 32.815 31.9359 32.4507ZM22.6488 26.7979L22.5939 26.9139C22.5597 26.9877 22.5256 27.0621 22.481 27.1329C21.6634 28.4998 20.6755 29.6652 19.5467 30.5969C19.3924 30.7233 19.2709 30.7825 19.1634 30.7825C19.0506 30.7825 18.9395 30.7165 18.8132 30.575C18.549 30.276 18.3989 30.0563 18.7144 29.7463C19.1452 29.3283 19.6101 28.9305 20.0605 28.5455C20.7537 27.9524 21.4701 27.3398 22.0851 26.6356C22.1595 26.5508 22.2352 26.5074 22.3102 26.5074C22.4371 26.5075 22.5629 26.6356 22.6488 26.7979ZM14.6508 30.7202C14.6139 30.6738 14.5776 30.6286 14.5413 30.5902C14.1679 30.2028 13.8005 29.8067 13.4332 29.4107C12.9326 28.8713 12.4316 28.3312 11.9135 27.8096C11.7259 27.6223 11.6356 27.4508 11.638 27.286C11.6417 27.034 11.8614 26.8259 12.074 26.6259L12.1844 26.5197C12.2973 26.4068 12.3965 26.3495 12.4791 26.3495C12.6268 26.3495 12.7321 26.5428 12.8251 26.7137C12.8629 26.7833 12.8995 26.8498 12.9371 26.9022C13.3914 27.5314 14.003 27.992 14.5944 28.4375C14.9812 28.7285 15.3812 29.03 15.7293 29.3735L15.8333 29.4693C15.9874 29.609 16.1333 29.7408 16.1705 29.9245C15.9493 30.3162 15.6215 30.6476 15.1676 30.9373C15.1102 30.9752 15.0574 30.9935 15.0071 30.9935C14.8714 30.9935 14.7591 30.8545 14.6508 30.7202Z" fill="#90C72E"/>
<path fill-rule="evenodd" clip-rule="evenodd" d="M6.62475 18.4819C6.75046 18.4978 6.86641 18.5057 6.97252 18.5057C7.67245 18.5057 7.97964 18.1475 7.99983 17.3082C8.02885 15.9618 8.02699 14.6398 7.99398 13.3792C7.92751 11.1307 8.28657 8.97425 9.09175 6.78703C9.67904 5.18073 10.7914 3.89749 12.3974 2.97305C13.6861 2.23714 15.0804 1.864 16.5418 1.864C20.1239 1.864 23.342 4.10581 24.3684 7.31602C24.9804 9.21584 25.225 10.9247 25.1164 12.5478C25.1824 13.9686 25.0883 15.2271 24.8297 16.3947C24.5594 17.5742 24.2585 18.6215 23.9108 19.5967C23.2871 21.3454 22.1156 22.4767 20.4284 22.9581L20.3369 22.9844C20.2118 23.021 20.0824 23.0582 19.9677 23.0582C19.8384 23.0582 19.748 23.0088 19.6845 22.9014C19.1617 22.0283 18.38 21.9105 17.6838 21.9105C17.4763 21.9105 17.2652 21.9215 17.0538 21.9324L16.9275 21.9392C15.8593 21.9972 15.1762 22.6672 15.1006 23.7312C15.0179 24.8015 15.7055 25.6827 16.7358 25.826C16.9851 25.8608 17.2106 25.8779 17.4248 25.8779C18.2634 25.8779 18.9133 25.607 19.4118 25.0492C19.7651 24.6618 20.2454 24.5013 20.6694 24.3951C23.0821 23.7739 24.6545 22.2064 25.4752 19.6027C25.6632 19.0108 25.9243 18.8021 26.5094 18.7765C27.9172 18.7069 28.7873 17.9991 29.0979 16.6714C29.4305 15.2469 29.3328 13.8056 28.8075 12.3876C28.5408 11.6691 28.1253 11.2762 27.606 11.2511C26.6798 11.1947 26.5907 10.6074 26.4869 9.92731L26.4722 9.82936C26.1512 7.70589 25.6033 6.08465 24.7454 4.72697C23.4293 2.62614 20.299 0.364746 16.5375 0.364746C15.6012 0.364746 14.6813 0.512102 13.8038 0.802895C10.9621 1.74805 9.17336 3.1728 8.17454 5.28711C7.36359 7.00391 6.86109 8.59706 6.6381 10.1576C6.55881 10.7083 6.35893 10.9118 5.847 10.963C4.93538 11.0494 4.34775 11.6379 4.19216 12.6203C4.07077 13.4294 3.94413 14.3871 3.9258 15.357C3.88623 17.4965 4.51689 18.2262 6.62475 18.4819ZM6.07219 12.4878L6.10758 12.5451C6.37786 12.5674 6.4438 12.7577 6.46239 13.0564L6.49201 13.6669C6.53411 14.538 6.57621 15.4115 6.6037 16.2803L6.60829 16.389C6.62382 16.6944 6.61194 16.8826 6.31935 16.9177C6.2809 16.9226 6.24332 16.925 6.20679 16.925C5.90106 16.925 5.66558 16.7499 5.54413 16.4329C5.41815 16.0887 5.42791 15.7412 5.43861 15.373C5.44319 15.2146 5.44744 15.056 5.44073 14.8991C5.4224 14.1822 5.48834 13.5525 5.64207 12.9734C5.72077 12.6762 5.85232 12.5438 6.06827 12.5438V12.4883C6.0698 12.4884 6.07066 12.4878 6.07219 12.4878ZM27.0458 12.7336C27.2515 12.7336 27.4059 12.8658 27.5047 13.1269C27.7414 13.7273 27.8684 14.3933 27.8451 14.9114C27.8335 16.0375 27.7524 16.8658 26.8042 17.2718C26.6431 17.3396 26.521 17.3722 26.4295 17.3722C26.3612 17.3722 26.3111 17.3537 26.277 17.3149C26.2117 17.2402 26.1933 17.0846 26.2232 16.8521C26.272 16.4835 26.3361 16.1168 26.3995 15.7497C26.5393 14.9412 26.6845 14.1053 26.665 13.2611C26.6589 12.9694 26.7113 12.7686 26.9872 12.7369C27.008 12.7346 27.0269 12.7336 27.0458 12.7336Z" fill="#90C72E"/>
</svg>
