<svg width="35" height="35" viewBox="0 0 35 35" fill="none" xmlns="http://www.w3.org/2000/svg">
<path d="M29.1666 16.04H32.0833C32.0833 8.55879 26.4352 2.9165 18.9437 2.9165V5.83317C24.8675 5.83317 29.1666 10.125 29.1666 16.04Z" fill="#90C72E"/>
<path d="M18.9584 11.6664C22.0253 11.6664 23.3334 12.9746 23.3334 16.0414H26.25C26.25 11.3383 23.6615 8.74978 18.9584 8.74978V11.6664ZM23.9488 19.6042C23.6686 19.3495 23.3003 19.2136 22.9218 19.2253C22.5434 19.237 22.1842 19.3953 21.9203 19.6669L18.4305 23.2558C17.5905 23.0954 15.9017 22.5689 14.1634 20.835C12.425 19.0952 11.8986 17.4021 11.7425 16.5679L15.3286 13.0767C15.6004 12.8129 15.759 12.4537 15.7707 12.0751C15.7824 11.6965 15.6463 11.3282 15.3913 11.0481L10.0028 5.1229C9.74761 4.84197 9.39299 4.67156 9.01423 4.64787C8.63546 4.62418 8.26238 4.74907 7.97421 4.99603L4.80963 7.70999C4.5575 7.96303 4.40701 8.29981 4.38671 8.65645C4.36484 9.02103 3.94775 17.6573 10.6444 24.3569C16.4865 30.1975 23.8044 30.6248 25.8198 30.6248C26.1144 30.6248 26.2953 30.616 26.3434 30.6131C26.7 30.5932 27.0366 30.442 27.2884 30.1887L30.0009 27.0227C30.248 26.7347 30.3732 26.3617 30.3497 25.983C30.3263 25.6042 30.1562 25.2495 29.8755 24.9942L23.9488 19.6042Z" fill="#90C72E"/>
</svg>
