<svg width="68" height="64" viewBox="0 0 68 64" fill="none" xmlns="http://www.w3.org/2000/svg">
<g clip-path="url(#clip0_151_120)">
<path d="M50.8952 38.9333V24.864H54.3575V36.0747H60.4208V38.928H50.8952V38.9333ZM23.1738 30.1653L31.6172 24.0533C32.4133 24.6613 33.2038 25.2747 34 25.8853L25.9902 31.592L27.7213 33.0187L35.7312 27.1093C36.5273 27.7173 37.3178 28.3307 38.114 28.944C35.4568 30.929 32.7868 32.8988 30.1042 34.8533L31.8325 36.2827L39.8508 30.1627L39.848 24.8667H43.3132V36.0773H49.5918V38.9307H40.0662V33.632C37.247 35.6667 34.4363 37.7093 31.62 39.744L23.1738 33.632C22.7658 35.576 21.3237 37.2587 19.4565 38.1493C18.649 38.5413 17.765 38.7893 16.864 38.8853C16.3455 38.944 15.8242 38.9307 15.3028 38.9307H9.962V24.8667H16.1217C17.7327 24.882 19.2919 25.405 20.5502 26.352C21.8365 27.312 22.7545 28.6773 23.1767 30.1653M13.2147 27.72V36.28L15.9148 36.2773C16.4825 36.26 17.0392 36.1262 17.5462 35.8853C18.0532 35.6444 18.4982 35.3022 18.8502 34.8827C19.445 34.1801 19.8104 33.3302 19.9019 32.436C19.9934 31.5418 19.8072 30.6418 19.3658 29.8453C19.0873 29.3383 18.6962 28.8935 18.2191 28.5411C17.742 28.1886 17.19 27.9368 16.6005 27.8027C16.1302 27.696 15.6428 27.7227 15.164 27.7173H13.2147V27.72ZM33.49 0H34.4448C39.7851 0.0656316 45.0329 1.32029 49.759 3.66133C54.3711 5.94576 58.3692 9.18973 61.4493 13.1467C65.61 18.4809 67.8999 24.9034 68 31.52V32.48C67.8935 40.4476 64.6228 48.0892 58.8313 53.9013C55.7099 57.0392 51.947 59.5511 47.7686 61.2865C43.5902 63.0218 39.0824 63.9448 34.5157 64H33.4928C29.4739 63.9429 25.4975 63.2152 21.7487 61.8507C17.1818 60.1777 13.0515 57.5983 9.639 54.288C5.98695 50.7538 3.24735 46.4764 1.632 41.7867C0.603045 38.7781 0.0530815 35.6428 0 32.4827L0 31.52C0.110963 25.4439 2.0696 19.5249 5.644 14.464C8.98338 9.72206 13.5845 5.88628 18.989 3.33867C23.496 1.21782 28.4517 0.0768498 33.49 0ZM33.0565 3.28C26.4111 3.45843 20.0112 5.68324 14.8382 9.61333C10.6073 12.819 7.36113 17.0285 5.43433 21.808C2.63339 28.8206 2.8294 36.5819 5.98117 43.4613C8.15396 48.1636 11.6227 52.2339 16.0282 55.2507C20.0299 57.9972 24.6858 59.7789 29.5885 60.44C33.7138 60.9973 37.961 60.7707 41.9872 59.7467C47.4982 58.3461 52.4804 55.5169 56.3663 51.5813C60.2551 47.6521 62.8922 42.7732 63.9767 37.5013C64.8227 33.365 64.7048 29.1052 63.631 25.016C62.3802 20.302 59.8792 15.9637 56.3619 12.4071C52.8447 8.85045 48.4262 6.19183 43.52 4.68C40.1451 3.64462 36.6043 3.17087 33.0565 3.28Z" fill="black" fill-opacity="0.31"/>
</g>
<defs>
<clipPath id="clip0_151_120">
<rect width="68" height="64" fill="white"/>
</clipPath>
</defs>
</svg>
