<svg width="68" height="64" viewBox="0 0 68 64" fill="none" xmlns="http://www.w3.org/2000/svg">
<path d="M67.3446 26.0044C56.4613 25.9995 45.578 26.002 34.6949 26.0031C34.6963 30.1665 34.6895 34.3299 34.6975 38.4919C41.0004 38.4906 47.3032 38.4894 53.6047 38.4919C52.8743 42.4815 50.3036 46.1299 46.6581 48.3759C44.3665 49.7971 41.7335 50.7195 39.0191 51.1581C36.2872 51.5881 33.4643 51.6431 30.7391 51.1343C27.9678 50.6243 25.3225 49.5594 23.0148 48.0583C19.3247 45.6673 16.5086 42.1689 15.0627 38.2318C13.5842 34.2272 13.5733 29.7713 15.0695 25.7706C16.1075 22.9508 17.8354 20.3461 20.1052 18.2264C22.9049 15.5828 26.5449 13.6931 30.4667 12.9181C33.8247 12.257 37.3657 12.3832 40.6534 13.3005C43.4478 14.083 46.0239 15.4953 48.1339 17.3539C50.2669 15.3978 52.3891 13.4305 54.5181 11.4707C55.6348 10.4159 56.8084 9.4072 57.8897 8.3236C54.6563 5.56381 50.866 3.34537 46.7245 1.94297C39.2684 -0.587898 30.8597 -0.641616 23.3535 1.7545C14.8946 4.42546 7.69189 10.2598 3.69835 17.6342C2.30799 20.1752 1.29289 22.8874 0.683103 25.6771C-0.850963 32.6275 0.218286 40.0382 3.69426 46.3687C5.95333 50.5007 9.19211 54.1741 13.1208 57.0538C16.8272 59.7798 21.1473 61.7934 25.7278 62.917C31.5076 64.3469 37.6599 64.3144 43.4777 63.0933C48.7357 61.9772 53.7105 59.6599 57.6824 56.2777C61.8807 52.7193 64.8755 48.031 66.4611 42.9928C68.1903 37.4971 68.4288 31.6302 67.3446 26.0044Z" fill="black" fill-opacity="0.31"/>
</svg>
