<svg width="40" height="40" viewBox="0 0 40 40" fill="none" xmlns="http://www.w3.org/2000/svg">
<g clip-path="url(#clip0_212_125)">
<g clip-path="url(#clip1_212_125)">
<path d="M36.4844 17.9999V30.4999C36.4803 32.1562 35.8204 33.7435 34.6492 34.9147C33.478 36.0859 31.8907 36.7458 30.2344 36.7499H21.25C20.9185 36.7499 20.6005 36.6182 20.3661 36.3838C20.1317 36.1493 20 35.8314 20 35.4999C20 35.1684 20.1317 34.8504 20.3661 34.616C20.6005 34.3816 20.9185 34.2499 21.25 34.2499H30.2344C31.2277 34.2458 32.1791 33.8494 32.8815 33.147C33.5839 32.4446 33.9803 31.4932 33.9844 30.4999V30.2811C33.5835 30.4257 33.1606 30.4997 32.7344 30.4999H30.2344C29.2398 30.4999 28.286 30.1048 27.5827 29.4015C26.8795 28.6983 26.4844 27.7444 26.4844 26.7499V20.4999C26.4844 19.5053 26.8795 18.5515 27.5827 17.8482C28.286 17.145 29.2398 16.7499 30.2344 16.7499H33.9219C33.6085 13.3158 32.0162 10.1249 29.4608 7.80966C26.9053 5.49441 23.5732 4.22385 20.125 4.24988H20.1094C16.6591 4.2166 13.3231 5.48466 10.766 7.80132C8.20902 10.118 6.61887 13.3131 6.3125 16.7499H10C10.9933 16.754 11.9447 17.1504 12.6471 17.8528C13.3495 18.5551 13.7459 19.5066 13.75 20.4999V26.7499C13.7459 27.7432 13.3495 28.6946 12.6471 29.397C11.9447 30.0994 10.9933 30.4958 10 30.4999H7.5C6.5067 30.4958 5.55527 30.0994 4.85289 29.397C4.15052 28.6946 3.75411 27.7432 3.75 26.7499V17.9999C3.74995 15.8567 4.17387 13.7346 4.99734 11.7559C5.82081 9.7772 7.02756 7.98094 8.54812 6.47055C10.0687 4.96016 11.873 3.76548 13.8572 2.9553C15.8414 2.14513 17.9662 1.73545 20.1094 1.74988H20.2344C24.5429 1.75402 28.6737 3.46739 31.7203 6.51396C34.7669 9.56053 36.4802 13.6914 36.4844 17.9999Z" fill="#EEEFEF"/>
</g>
</g>
<defs>
<clipPath id="clip0_212_125">
<rect width="40" height="40" fill="white"/>
</clipPath>
<clipPath id="clip1_212_125">
<rect width="40" height="40" fill="white" transform="translate(0 -2)"/>
</clipPath>
</defs>
</svg>
