<svg width="68" height="64" viewBox="0 0 68 64" fill="none" xmlns="http://www.w3.org/2000/svg">
<g clip-path="url(#clip0_151_123)">
<path d="M8.22234 57.5627H3.09967V53.3174H0.83017V63.8427H3.09967V59.568H8.22234V63.8427H10.4918V53.3174H8.22234V57.5627Z" fill="black" fill-opacity="0.31"/>
<path d="M21.0063 59.3414C21.0063 61.0534 20.1025 61.9654 18.4648 61.9654C16.8158 61.9654 15.9092 61.0241 15.9092 59.2694V53.3227H13.6368V59.3414C13.6368 62.3014 15.385 64.0001 18.4337 64.0001C21.5107 64.0001 23.2758 62.2694 23.2758 59.2534V53.3174H21.0063V59.3414Z" fill="black" fill-opacity="0.31"/>
<path d="M47.2317 60.5545L44.6902 53.3145H42.84L40.3013 60.5545L37.8307 53.3225H35.4138L39.3125 63.8425H41.191L43.7353 56.9305L46.2769 63.8425H48.1724L52.0597 53.3225H49.7052L47.2317 60.5545Z" fill="black" fill-opacity="0.31"/>
<path d="M56.1283 59.3119H60.2565V57.3945H56.1283V55.2399H62.118V53.3252H53.89V63.8372H62.3333V61.9199H56.1283V59.3119Z" fill="black" fill-opacity="0.31"/>
<path d="M67.2775 53.3174H65.0392V63.8294H67.2775V53.3174Z" fill="black" fill-opacity="0.31"/>
<path d="M32.878 61.6454L33.881 63.8347H36.2582L31.3508 53.3174H29.3505L24.4233 63.8347H26.741L27.761 61.6454H32.878ZM30.3138 55.9787L32.0337 59.7467H28.6025L30.3138 55.9787Z" fill="black" fill-opacity="0.31"/>
<path d="M62.4665 18.688C62.8349 13.2987 57.0718 8.312 57.0718 8.312C57.0718 8.312 46.3845 20.496 38.5957 36.496C38.556 36.5787 38.5418 36.72 38.6325 36.7947C38.6948 36.8427 38.811 36.8773 38.9328 36.8213C41.8512 35.4587 53.9892 29.576 59.1005 24.984C59.1005 24.984 62.2965 22.568 62.4665 18.688ZM48.8438 6.528C48.8438 6.528 47.5065 1.832 42.0863 0.592C42.0863 0.592 40.5252 0.218667 38.8648 0C38.8648 0 32.8043 7.34133 35.751 35.0453C35.7652 35.1893 35.8502 35.2427 35.9182 35.2613C36.0287 35.288 36.1335 35.2507 36.2072 35.152C38.1508 32.5093 47.0107 20.1493 48.8098 12.632C48.8098 12.632 49.7845 8.99467 48.8438 6.528ZM40.5365 40.736C40.5053 40.7973 40.477 40.9467 40.5989 41.0293C42.5567 42.3493 48.4897 46.256 51.3485 47.0133C51.3485 47.0133 56.6355 48.7093 61.2255 41.2853C61.2255 41.2853 45.8603 40.7813 40.7519 40.6133C40.681 40.6107 40.5762 40.6587 40.5365 40.736ZM66.6684 24.2667C66.6684 24.2667 49.2858 33.0533 40.2985 38.752C40.2333 38.7947 40.1483 38.8773 40.1937 39.0267C40.2163 39.1067 40.2985 39.1787 40.4062 39.1787C43.622 39.184 55.8053 39.1973 56.1113 39.144C56.1113 39.144 57.6867 39.0853 59.6332 38.3813C59.6332 38.3813 63.9653 37.0853 66.215 32.4533C66.215 32.4533 68.221 28.68 66.6684 24.2667ZM27.6817 38.752C18.6943 33.0533 1.31185 24.2667 1.31185 24.2667C-0.240821 28.68 1.76518 32.456 1.76518 32.456C4.01485 37.0853 8.34701 38.384 8.34701 38.384C10.2935 39.088 11.8688 39.1467 11.8688 39.1467C12.1748 39.2 24.3582 39.1867 27.574 39.1813C27.6817 39.1813 27.7638 39.1093 27.7865 39.0293C27.829 38.8773 27.7468 38.7947 27.6817 38.752ZM27.2283 40.6133C22.1198 40.7813 6.75468 41.2853 6.75468 41.2853C11.3475 48.7093 16.6317 47.0133 16.6317 47.0133C19.4905 46.256 25.4263 42.3493 27.3813 41.0293C27.506 40.9467 27.4748 40.7947 27.4437 40.736C27.404 40.6587 27.2992 40.6107 27.2283 40.6133ZM25.8938 0.592C20.4737 1.832 19.1363 6.528 19.1363 6.528C18.1957 8.99467 19.1703 12.632 19.1703 12.632C20.9695 20.1493 29.8293 32.512 31.773 35.152C31.8467 35.2507 31.9515 35.288 32.062 35.2613C32.1328 35.2427 32.215 35.192 32.232 35.0453C35.1758 7.34133 29.1153 0 29.1153 0C27.455 0.218667 25.8938 0.592 25.8938 0.592ZM10.9083 8.312C10.9083 8.312 5.14535 13.2987 5.51368 18.688C5.68368 22.568 8.87968 24.984 8.87968 24.984C13.9938 29.5733 26.129 35.456 29.0473 36.8213C29.1663 36.8773 29.2825 36.8427 29.3477 36.7947C29.4412 36.72 29.4242 36.5813 29.3845 36.496C21.5957 20.4933 10.9083 8.312 10.9083 8.312Z" fill="black" fill-opacity="0.31"/>
</g>
<defs>
<clipPath id="clip0_151_123">
<rect width="68" height="64" fill="white"/>
</clipPath>
</defs>
</svg>
