<svg width="68" height="64" viewBox="0 0 68 64" fill="none" xmlns="http://www.w3.org/2000/svg">
<path d="M4.9215 19.9307H0V24.5627H4.9215V19.9307Z" fill="black" fill-opacity="0.31"/>
<path d="M4.79969 44.0691V27.3838H0.138855V44.0691H4.79969ZM35.768 44.2318V40.1438C35.0852 40.1438 34.5072 40.1118 34.085 40.0451C33.5949 39.9784 33.2265 39.8131 32.9829 39.5838C32.7364 39.3518 32.5805 39.0238 32.4927 38.5944C32.4219 38.1811 32.3879 37.6371 32.3879 36.9784V31.1411H35.768V27.3811H32.3879V20.8718H27.7129V37.0131C27.7129 38.3811 27.8347 39.5358 28.0812 40.4584C28.3277 41.3651 28.747 42.1064 29.325 42.6664C29.903 43.2264 30.6737 43.6238 31.603 43.8691C32.5494 44.1171 33.7394 44.2318 35.1589 44.2318H35.768ZM62.5345 44.0691V19.5864H57.8567V44.0691H62.5345ZM23.2107 29.0158C21.9159 27.6958 20.094 27.0371 17.7792 27.0371C16.6572 27.0371 15.6429 27.2504 14.7135 27.6798C13.804 28.1091 13.0135 28.7011 12.4015 29.4611L12.138 29.7731V29.4931V27.3838H7.53102V44.0691H12.172V35.1838V35.7944C12.172 35.6958 12.172 35.5971 12.172 35.4984C12.2259 33.9331 12.6282 32.7784 13.3989 32.0371C14.2234 31.2451 15.2207 30.8504 16.3597 30.8504C17.7084 30.8504 18.7425 31.2451 19.4254 32.0051C20.0912 32.7624 20.4425 33.8344 20.4425 35.2024V35.2344V44.0558H25.1544V34.5918C25.1714 32.2131 24.5055 30.3358 23.2107 29.0158ZM55.4399 35.6931C55.4399 34.4904 55.2132 33.3678 54.774 32.3144C54.3179 31.2771 53.6889 30.3518 52.8984 29.5624C52.0937 28.7704 51.1304 28.1598 50.0084 27.7171C48.8864 27.2718 47.6425 27.0584 46.2939 27.0584C45.016 27.0584 43.8062 27.2904 42.6842 27.7331C41.5622 28.1944 40.5819 28.8051 39.7602 29.5784C38.9357 30.3544 38.2699 31.2771 37.7995 32.3304C37.3094 33.3864 37.0827 34.5224 37.0827 35.7278C37.0827 36.9304 37.3094 38.0691 37.7655 39.1251C38.2217 40.1811 38.8677 41.1038 39.6752 41.8771C40.4799 42.6531 41.48 43.2798 42.636 43.7224C43.792 44.1838 45.0699 44.4158 46.4384 44.4158C50.3965 44.4158 52.8502 42.7171 54.3207 41.1358L50.9575 38.7278C50.2577 39.5198 48.5747 40.5918 46.4724 40.5918C45.1577 40.5918 44.0725 40.3118 43.248 39.7358C42.4235 39.1758 41.8654 38.3838 41.565 37.4104L41.5112 37.2611H55.437L55.4399 35.6931ZM41.5509 34.1598C41.5509 32.9411 43.0412 30.8131 46.2457 30.7971C49.4502 30.7971 50.9575 32.9251 50.9575 34.1438L41.5509 34.1598Z" fill="black" fill-opacity="0.31"/>
<path d="M67.8612 41.8902C67.7734 41.6929 67.6515 41.5275 67.4929 41.3782C67.3342 41.2289 67.1614 41.1142 66.9489 41.0315C66.7392 40.9489 66.5097 40.9009 66.283 40.9009C66.0365 40.9009 65.8269 40.9515 65.6172 41.0315C65.4075 41.1142 65.2319 41.2289 65.0732 41.3782C64.9145 41.5275 64.7927 41.6902 64.7049 41.8902C64.617 42.0875 64.566 42.3035 64.566 42.5169C64.566 42.7489 64.6199 42.9462 64.7049 43.1435C64.7899 43.3409 64.9145 43.5062 65.0732 43.6555C65.2319 43.8049 65.4047 43.9195 65.6172 44.0022C65.8269 44.0849 66.0564 44.1329 66.283 44.1329C66.5295 44.1329 66.7392 44.0822 66.9489 44.0022C67.1585 43.9195 67.3342 43.8049 67.4929 43.6555C67.6515 43.5062 67.7734 43.3435 67.8612 43.1435C67.9462 42.9462 68 42.7329 68 42.5169C68 42.3035 67.9462 42.0902 67.8612 41.8902ZM67.5807 43.0449C67.5099 43.2102 67.405 43.3569 67.2832 43.4742C67.1614 43.5889 67.0027 43.6875 66.827 43.7542C66.6514 43.8209 66.4757 43.8529 66.266 43.8529C66.0734 43.8529 65.8807 43.8209 65.705 43.7542C65.5294 43.6875 65.3735 43.5889 65.2489 43.4742C65.1242 43.3595 65.0222 43.2102 64.9514 43.0449C64.8805 42.8795 64.8465 42.7142 64.8465 42.5169C64.8465 42.3355 64.8805 42.1542 64.9514 41.9889C65.0222 41.8235 65.127 41.6769 65.2489 41.5595C65.3707 41.4449 65.5294 41.3462 65.705 41.2795C65.8807 41.2129 66.0564 41.1809 66.266 41.1809C66.4587 41.1809 66.6514 41.2129 66.827 41.2795C67.0027 41.3462 67.1585 41.4449 67.2832 41.5595C67.405 41.6742 67.5099 41.8235 67.5807 41.9889C67.6515 42.1542 67.6855 42.3195 67.6855 42.5169C67.7025 42.7169 67.6487 42.8795 67.5807 43.0449ZM66.5975 42.6502C66.7364 42.6342 66.844 42.5835 66.929 42.5009C67.0169 42.4182 67.0679 42.3035 67.0679 42.1382C67.0679 41.9569 67.014 41.8262 66.8922 41.7249C66.7874 41.6262 66.5947 41.5755 66.368 41.5755H65.5974V43.4395H65.9657V42.6822H66.2292L66.7194 43.4395H67.1047L66.5975 42.6502ZM66.4049 42.3862C66.351 42.3862 66.3 42.3862 66.2292 42.3862H65.9657V41.8582H66.2292C66.283 41.8582 66.334 41.8582 66.4049 41.8582C66.4587 41.8582 66.5097 41.8742 66.5635 41.8902C66.6174 41.9062 66.6514 41.9409 66.6684 41.9729C66.6854 42.0049 66.7024 42.0555 66.7024 42.1222C66.7024 42.1889 66.6854 42.2369 66.6684 42.2715C66.6344 42.3035 66.5975 42.3382 66.5635 42.3542C66.5097 42.3702 66.4587 42.3862 66.4049 42.3862Z" fill="black" fill-opacity="0.31"/>
</svg>
