<svg width="81" height="76" viewBox="0 0 81 76" fill="none" xmlns="http://www.w3.org/2000/svg">
<path fill-rule="evenodd" clip-rule="evenodd" d="M21.88 40.9234L21.8958 40.8869C21.8958 40.8869 21.8732 40.8992 21.8298 40.9212L21.88 40.9234ZM15.832 42.1026C15.832 42.1026 15.106 41.988 15.106 41.3684L15.1483 41.1489L16.1669 40.9234L23.4316 39.3173C23.4316 39.3173 25.2 35.6984 18.4522 35.7854C11.7051 35.8725 10.8217 39.8836 10.7282 40.7126C10.7214 40.7754 10.7168 40.8464 10.7162 40.9228L10.8217 41.1379C10.8163 42.0631 11.3302 43.6364 15.8459 43.6768C15.8459 43.6768 19.8467 43.5476 21.0113 42.9367L21.8801 40.9234H21.83C21.347 41.1682 18.3001 42.6527 15.832 42.1026ZM15.7676 38.6664C15.7676 38.6664 16.0622 37.0096 18.0535 36.9828C20.0456 36.956 19.6143 38.5524 19.6143 38.5524L15.25 40.6136L15.7676 38.6664ZM7.46972 32.4717L4.11929 43.4155H8.82046C9.9369 39.7677 11.054 36.1198 12.1706 32.4717H7.46972ZM60.2504 36.0664L56.6584 40.9236L56.4692 41.1796L56.436 40.9236L55.8005 36.0664H51.4429L52.0705 40.9236L52.3926 43.4155H59.4456L61.257 40.9236L64.7872 36.0664H60.2504ZM44.8 35.8241C37.8688 36.0664 37.4016 40.0414 37.4016 40.0414C37.4016 40.0414 37.2385 40.4168 37.2413 40.9234C37.2494 42.046 38.0654 43.8119 43.2108 43.6452C47.3241 43.5117 49.2725 42.1353 50.193 40.9222C50.9476 39.9289 51.012 39.044 51.012 39.044C51.012 39.044 51.7307 35.5817 44.8 35.8241ZM46.1298 39.044C46.1298 39.044 46.0482 40.0429 45.557 40.9234C45.1626 41.6309 44.5043 42.2605 43.4122 42.2375C43.4122 42.2375 42.1721 42.3284 42.1708 40.9262C42.1708 40.6675 42.213 40.3576 42.3125 39.9877L42.7794 38.6934C42.7794 38.6934 43.1531 37.1512 44.7998 37.1779C46.4464 37.2052 46.2448 38.3973 46.1298 39.044ZM35.7552 36.2555C35.7552 36.2555 33.5622 35.6895 30.5281 35.8506C27.4943 36.0122 25.3301 36.3898 25.3301 36.3898L23.8963 40.9234L23.1084 43.4154H27.9328L28.7317 40.9234L29.9241 37.2051C29.9241 37.2051 32.7789 36.8209 32.4052 38.2023L31.5607 40.9234L30.7871 43.4154H35.5248L36.3181 40.9234L37.2004 38.1485C37.2004 38.1485 37.7756 36.6325 35.7552 36.2555ZM70.6609 35.8241C63.7301 36.0664 63.2623 40.0414 63.2623 40.0414C63.2623 40.0414 63.0995 40.4168 63.1028 40.9234C63.1098 42.046 63.9261 43.8119 69.0716 43.6452C73.1854 43.5117 75.1334 42.1353 76.0541 40.9222C76.8086 39.9289 76.8728 39.044 76.8728 39.044C76.8728 39.044 77.5918 35.5817 70.6609 35.8241ZM71.991 39.044C71.991 39.044 71.9097 40.0429 71.4178 40.9234C71.0234 41.6309 70.3653 42.2605 69.2737 42.2375C69.2737 42.2375 68.0332 42.3284 68.0319 40.9262C68.0319 40.6675 68.0745 40.3576 68.174 39.9877L68.6407 38.6934C68.6407 38.6934 69.0144 37.1512 70.6609 37.1779C72.3075 37.2052 72.1068 38.3973 71.991 39.044Z" fill="black" fill-opacity="0.31"/>
</svg>
