<svg width="35" height="35" viewBox="0 0 35 35" fill="none" xmlns="http://www.w3.org/2000/svg">
<path d="M18.5063 17.5877C18.2383 17.8295 17.8901 17.9634 17.5292 17.9634C17.1682 17.9634 16.8201 17.8295 16.5521 17.5877L4.18542 6.34391C4.6707 6.0115 5.24513 5.83357 5.83334 5.8335H29.1667C29.7549 5.83357 30.3293 6.0115 30.8146 6.34391L18.5063 17.5877Z" fill="#90C72E"/>
<path d="M32.0834 9.12939V24.7919C32.0834 25.9522 31.6224 27.065 30.8019 27.8855C29.9815 28.706 28.8687 29.1669 27.7084 29.1669H7.29169C6.13136 29.1669 5.01857 28.706 4.19809 27.8855C3.37762 27.065 2.91669 25.9522 2.91669 24.7919V9.12939L15.575 20.6794C16.1089 21.1431 16.7929 21.397 17.5 21.394C18.2159 21.3925 18.9063 21.1278 19.4396 20.6502L32.0834 9.12939Z" fill="#90C72E"/>
</svg>
