<svg width="100" height="100" viewBox="0 0 100 100" fill="none" xmlns="http://www.w3.org/2000/svg">
<path fill-rule="evenodd" clip-rule="evenodd" d="M89.5834 72.9168H60.823C62.0625 79.7939 66.1834 84.5252 69.9917 87.5002H75C76.1521 87.5002 77.0834 88.4314 77.0834 89.5835C77.0834 90.7356 76.1521 91.6668 75 91.6668H25C23.848 91.6668 22.9167 90.7356 22.9167 89.5835C22.9167 88.4314 23.848 87.5002 25 87.5002H30.0063C33.8125 84.5252 37.9375 79.7939 39.175 72.9168H10.4167C5.81462 72.9168 2.08337 69.1856 2.08337 64.5835V16.6668C2.08337 12.0647 5.81462 8.3335 10.4167 8.3335H89.5834C94.1855 8.3335 97.9167 12.0647 97.9167 16.6668V64.5835C97.9167 69.1856 94.1855 72.9168 89.5834 72.9168ZM36.2438 87.5002H63.7542C60.4313 83.996 57.473 79.2168 56.548 72.9168H43.45C42.525 79.2168 39.5667 83.996 36.2438 87.5002ZM93.75 16.6668C93.75 14.3668 91.8834 12.5002 89.5834 12.5002H10.4167C8.11671 12.5002 6.25004 14.3668 6.25004 16.6668V56.2502H93.75V16.6668ZM93.75 60.4168H6.25004V64.5835C6.25004 66.8835 8.11671 68.7502 10.4167 68.7502H39.5834H60.4167H89.5834C91.8834 68.7502 93.75 66.8835 93.75 64.5835V60.4168ZM50 66.6668C48.848 66.6668 47.9167 65.7356 47.9167 64.5835C47.9167 63.4314 48.848 62.5002 50 62.5002C51.1521 62.5002 52.0834 63.4314 52.0834 64.5835C52.0834 65.7356 51.1521 66.6668 50 66.6668Z" fill="#02397A"/>
</svg>
