<svg width="100" height="100" viewBox="0 0 100 100" fill="none" xmlns="http://www.w3.org/2000/svg">
<path d="M76.9231 96.1539H23.0769V3.84619H76.9231V96.1539ZM26.9231 92.3077H73.0769V7.69235H26.9231V92.3077Z" fill="#02397A"/>
<path d="M38.3798 61.5384C34.1383 61.5384 30.6875 58.0876 30.6875 53.8461C30.6875 49.6046 34.1383 46.1538 38.3798 46.1538C42.6213 46.1538 46.0721 49.6046 46.0721 53.8461C46.0721 58.0876 42.6213 61.5384 38.3798 61.5384ZM38.3798 50C36.2586 50 34.5337 51.7249 34.5337 53.8461C34.5337 55.9673 36.2586 57.6923 38.3798 57.6923C40.501 57.6923 42.226 55.9673 42.226 53.8461C42.226 51.7249 40.501 50 38.3798 50Z" fill="#02397A"/>
<path d="M71.1539 23.077H28.8462V11.5386H71.1539V23.077ZM32.6923 19.2309H67.3077V15.3847H32.6923V19.2309Z" fill="#02397A"/>
<path d="M34.5337 26.9233H30.6875V30.7695H34.5337V26.9233Z" fill="#02397A"/>
<path d="M42.226 26.9233H38.3799V30.7695H42.226V26.9233Z" fill="#02397A"/>
<path d="M69.1491 65.3848H30.7693V69.2309H69.1491V65.3848Z" fill="#02397A"/>
<path d="M69.1491 75H30.7693V78.8462H69.1491V75Z" fill="#02397A"/>
<path d="M69.1491 84.6152H30.7693V88.4614H69.1491V84.6152Z" fill="#02397A"/>
<path d="M75 34.6152H25V38.4614H75V34.6152Z" fill="#02397A"/>
</svg>
