<svg width="100" height="100" viewBox="0 0 100 100" fill="none" xmlns="http://www.w3.org/2000/svg">
<path d="M88.4221 46.4725H50.1546C49.4435 43.1134 47.5997 40.1007 44.9322 37.9388C42.2647 35.7769 38.9354 34.5972 35.5019 34.5972C32.0683 34.5972 28.739 35.7769 26.0715 37.9388C23.404 40.1007 21.5602 43.1134 20.8491 46.4725H11.5781C10.5067 46.4738 9.47966 46.8999 8.72214 47.6575C7.96462 48.4151 7.53853 49.4422 7.53735 50.5135V69.1027C7.53857 70.174 7.96468 71.2011 8.72219 71.9586C9.47971 72.7162 10.5068 73.1423 11.5781 73.1436H20.1697V77.404C20.1697 77.8184 20.3344 78.2158 20.6274 78.5089C20.9204 78.8019 21.3178 78.9665 21.7322 78.9665C22.1466 78.9665 22.5441 78.8019 22.8371 78.5089C23.1301 78.2158 23.2947 77.8184 23.2947 77.404V73.1435H77.8614V77.404C77.8614 77.8184 78.026 78.2158 78.3191 78.5088C78.6121 78.8019 79.0095 78.9665 79.4239 78.9665C79.8383 78.9665 80.2357 78.8019 80.5288 78.5088C80.8218 78.2158 80.9864 77.8184 80.9864 77.404V73.1435H88.422C89.4933 73.1423 90.5203 72.7162 91.2778 71.9586C92.0354 71.2011 92.4615 70.174 92.4627 69.1027V50.5135C92.4615 49.4422 92.0354 48.4151 91.278 47.6576C90.5205 46.9 89.4934 46.4738 88.4221 46.4725ZM35.5018 37.7223C37.846 37.7223 40.1377 38.4174 42.0869 39.7198C44.0361 41.0222 45.5553 42.8734 46.4524 45.0392C47.3496 47.205 47.5843 49.5883 47.127 51.8875C46.6696 54.1867 45.5407 56.2987 43.8831 57.9564C42.2254 59.6141 40.1135 60.7429 37.8142 61.2003C35.515 61.6576 33.1318 61.4229 30.9659 60.5258C28.8001 59.6287 26.9489 58.1095 25.6465 56.1603C24.3441 54.2111 23.6489 51.9195 23.6489 49.5752C23.6525 46.4327 24.9024 43.42 27.1245 41.1979C29.3465 38.9758 32.3593 37.7259 35.5018 37.7223ZM89.3378 69.1027C89.3376 69.3455 89.241 69.5783 89.0693 69.75C88.8977 69.9217 88.6649 70.0182 88.4221 70.0185H11.5781C11.3353 70.0182 11.1025 69.9217 10.9309 69.75C10.7592 69.5783 10.6626 69.3455 10.6624 69.1027V50.5135C10.6626 50.2707 10.7591 50.0379 10.9308 49.8662C11.1025 49.6944 11.3353 49.5978 11.5781 49.5975H20.5245C20.5267 53.0965 21.7595 56.4832 24.0072 59.1648H15.9273C15.7793 59.1648 15.6327 59.1939 15.496 59.2506C15.3592 59.3072 15.235 59.3902 15.1303 59.4949C15.0257 59.5996 14.9426 59.7238 14.886 59.8606C14.8294 59.9973 14.8002 60.1439 14.8002 60.2919V65.1567C14.8002 65.4556 14.919 65.7423 15.1303 65.9537C15.3417 66.1651 15.6284 66.2838 15.9273 66.2838H84.0729C84.3718 66.2838 84.6585 66.1651 84.8699 65.9537C85.0812 65.7423 85.2 65.4556 85.2 65.1567V60.292C85.2 60.144 85.1708 59.9974 85.1142 59.8606C85.0575 59.7239 84.9745 59.5996 84.8699 59.495C84.7652 59.3903 84.6409 59.3073 84.5042 59.2506C84.3674 59.194 84.2209 59.1649 84.0729 59.1649H46.9964C49.2441 56.4833 50.477 53.0965 50.4792 49.5975H88.4221C88.6649 49.5978 88.8977 49.6944 89.0694 49.8662C89.2411 50.0379 89.3376 50.2707 89.3378 50.5135V69.1027Z" fill="#02397A"/>
<path d="M35.5019 57.306C37.031 57.306 38.5257 56.8526 39.7971 56.0032C41.0685 55.1537 42.0595 53.9463 42.6447 52.5336C43.2299 51.1209 43.383 49.5664 43.0847 48.0667C42.7864 46.567 42.0501 45.1894 40.9689 44.1082C39.8877 43.027 38.5101 42.2906 37.0104 41.9923C35.5107 41.694 33.9562 41.8471 32.5436 42.4322C31.1309 43.0174 29.9234 44.0083 29.0739 45.2797C28.2244 46.5511 27.771 48.0458 27.771 49.5749C27.7733 51.6246 28.5886 53.5896 30.0379 55.039C31.4872 56.4883 33.4522 57.3036 35.5019 57.306Z" fill="#02397A"/>
<path d="M35.5017 30.6645C35.9161 30.6645 36.3135 30.4998 36.6066 30.2068C36.8996 29.9138 37.0642 29.5164 37.0642 29.102V22.5957C37.0642 22.1813 36.8996 21.7839 36.6066 21.4908C36.3135 21.1978 35.9161 21.0332 35.5017 21.0332C35.0873 21.0332 34.6899 21.1978 34.3969 21.4908C34.1038 21.7839 33.9392 22.1813 33.9392 22.5957V29.102C33.9392 29.5164 34.1038 29.9138 34.3969 30.2068C34.6899 30.4998 35.0873 30.6645 35.5017 30.6645Z" fill="#02397A"/>
<path d="M44.7991 32.9853C44.9743 33.092 45.1689 33.1631 45.3717 33.1946C45.5745 33.226 45.7815 33.2172 45.9809 33.1687C46.1803 33.1201 46.3681 33.0327 46.5337 32.9115C46.6993 32.7903 46.8394 32.6377 46.946 32.4623L50.3269 26.9034C50.4342 26.7281 50.5059 26.5333 50.5377 26.3303C50.5696 26.1272 50.5611 25.9199 50.5128 25.7201C50.4644 25.5203 50.377 25.3321 50.2558 25.1661C50.1345 25.0001 49.9817 24.8597 49.8061 24.7529C49.6305 24.6461 49.4355 24.575 49.2324 24.5437C49.0293 24.5123 48.8219 24.5214 48.6223 24.5703C48.4226 24.6192 48.2346 24.707 48.069 24.8287C47.9033 24.9504 47.7633 25.1036 47.657 25.2795L44.2761 30.8384C44.0608 31.1924 43.9949 31.6175 44.093 32.0201C44.191 32.4228 44.445 32.7699 44.7991 32.9853Z" fill="#02397A"/>
<path d="M52.4669 39.281C52.8031 39.2812 53.1303 39.1725 53.3996 38.9712L58.6162 35.0828C58.9484 34.8352 59.1687 34.4657 59.2285 34.0556C59.2883 33.6455 59.1828 33.2285 58.9351 32.8963C58.6874 32.564 58.3179 32.3437 57.9078 32.2839C57.4978 32.2241 57.0808 32.3297 56.7485 32.5773L51.5319 36.4657C51.2686 36.662 51.0739 36.9363 50.9753 37.2495C50.8768 37.5628 50.8795 37.8992 50.983 38.2109C51.0865 38.5226 51.2856 38.7937 51.5519 38.9858C51.8183 39.1779 52.1385 39.2812 52.4669 39.281Z" fill="#02397A"/>
<path d="M24.0576 32.4623C24.1639 32.6382 24.3039 32.7914 24.4696 32.9131C24.6352 33.0348 24.8232 33.1226 25.0229 33.1715C25.2225 33.2205 25.4299 33.2295 25.633 33.1982C25.8361 33.1668 26.0311 33.0957 26.2067 32.9889C26.3823 32.8821 26.5351 32.7417 26.6564 32.5757C26.7776 32.4098 26.865 32.2215 26.9133 32.0217C26.9617 31.822 26.9702 31.6146 26.9383 31.4115C26.9064 31.2085 26.8348 31.0137 26.7275 30.8384L23.3467 25.2795C23.2403 25.1036 23.1003 24.9504 22.9347 24.8287C22.769 24.707 22.581 24.6192 22.3814 24.5703C22.1817 24.5214 21.9744 24.5123 21.7713 24.5437C21.5681 24.575 21.3732 24.6461 21.1976 24.7529C21.022 24.8597 20.8691 25.0001 20.7479 25.1661C20.6266 25.3321 20.5393 25.5203 20.4909 25.7201C20.4425 25.9199 20.4341 26.1272 20.4659 26.3303C20.4978 26.5333 20.5695 26.7281 20.6767 26.9034L24.0576 32.4623Z" fill="#02397A"/>
<path d="M12.3875 35.0828L17.6041 38.9712C17.9363 39.2188 18.3533 39.3244 18.7634 39.2646C19.1735 39.2047 19.543 38.9845 19.7906 38.6522C20.0383 38.32 20.1439 37.903 20.0841 37.4929C20.0242 37.0828 19.804 36.7133 19.4717 36.4657L14.2551 32.5773C13.9229 32.3297 13.5059 32.2241 13.0958 32.2839C12.6857 32.3437 12.3162 32.564 12.0686 32.8963C11.8209 33.2285 11.7153 33.6455 11.7752 34.0556C11.835 34.4657 12.0552 34.8352 12.3875 35.0828Z" fill="#02397A"/>
<path d="M77.0835 53.4785H64.8232C64.4088 53.4785 64.0114 53.6431 63.7184 53.9362C63.4254 54.2292 63.2607 54.6266 63.2607 55.041C63.2607 55.4554 63.4254 55.8528 63.7184 56.1459C64.0114 56.4389 64.4088 56.6035 64.8232 56.6035H77.0835C77.4979 56.6035 77.8953 56.4389 78.1883 56.1459C78.4814 55.8528 78.646 55.4554 78.646 55.041C78.646 54.6266 78.4814 54.2292 78.1883 53.9362C77.8953 53.6431 77.4979 53.4785 77.0835 53.4785Z" fill="#02397A"/>
<path d="M83.5097 56.877C84.5236 56.57 85.0967 55.4993 84.7897 54.4854C84.4827 53.4715 83.4119 52.8984 82.3981 53.2054C81.3842 53.5124 80.8111 54.5831 81.1181 55.597C81.4251 56.6109 82.4958 57.184 83.5097 56.877Z" fill="#02397A"/>
</svg>
