<svg width="40" height="66" viewBox="0 0 40 66" fill="none" xmlns="http://www.w3.org/2000/svg">
<path d="M39.1682 18.1691V61.3091C39.1682 63.5426 37.2791 65.3532 34.9488 65.3532H4.89613C2.56584 65.3532 0.676758 63.5426 0.676758 61.3091V18.1691C0.676758 15.9356 2.56584 14.125 4.89613 14.125H34.9488C37.2791 14.125 39.1682 15.9356 39.1682 18.1691Z" fill="#02397A"/>
<path d="M34.2642 37.8547V23.1108C34.2642 22.3663 33.6344 21.7627 32.8577 21.7627H6.98733C6.21057 21.7627 5.58081 22.3663 5.58081 23.1108V37.8547C5.58081 38.5992 6.21057 39.2028 6.98733 39.2028H32.8577C33.6346 39.2028 34.2642 38.5992 34.2642 37.8547Z" fill="#EEEFEF"/>
<path d="M13.3539 44.2961V48.7399C13.3539 49.5666 12.6548 50.2367 11.7922 50.2367H7.14246C6.27992 50.2367 5.58081 49.5666 5.58081 48.7399V44.2961C5.58081 43.4694 6.27992 42.7993 7.14246 42.7993H11.7922C12.6548 42.7993 13.3539 43.4694 13.3539 44.2961Z" fill="#EEEFEF"/>
<path d="M34.264 44.2961V48.7399C34.264 49.5666 33.5649 50.2367 32.7024 50.2367H28.0526C27.1901 50.2367 26.491 49.5666 26.491 48.7399V44.2961C26.491 43.4694 27.1901 42.7993 28.0526 42.7993H32.7024C33.5649 42.7993 34.264 43.4694 34.264 44.2961Z" fill="#EEEFEF"/>
<path d="M23.8087 44.2961V48.7399C23.8087 49.5666 23.1096 50.2367 22.247 50.2367H17.5973C16.7348 50.2367 16.0356 49.5666 16.0356 48.7399V44.2961C16.0356 43.4694 16.7348 42.7993 17.5973 42.7993H22.247C23.1096 42.7993 23.8087 43.4694 23.8087 44.2961Z" fill="#EEEFEF"/>
<path d="M13.3539 54.5505V58.9941C13.3539 59.8209 12.6548 60.4909 11.7922 60.4909H7.14246C6.27992 60.4909 5.58081 59.8209 5.58081 58.9941V54.5505C5.58081 53.7238 6.27992 53.0537 7.14246 53.0537H11.7922C12.6548 53.0537 13.3539 53.7238 13.3539 54.5505Z" fill="#EEEFEF"/>
<path d="M34.264 54.5505V58.9941C34.264 59.8209 33.5649 60.4909 32.7024 60.4909H28.0526C27.1901 60.4909 26.491 59.8209 26.491 58.9941V54.5505C26.491 53.7238 27.1901 53.0537 28.0526 53.0537H32.7024C33.5649 53.0537 34.264 53.7238 34.264 54.5505Z" fill="#EEEFEF"/>
<path d="M23.8087 54.5505V58.9941C23.8087 59.8209 23.1096 60.4909 22.247 60.4909H17.5973C16.7348 60.4909 16.0356 59.8209 16.0356 58.9941V54.5505C16.0356 53.7238 16.7348 53.0537 17.5973 53.0537H22.247C23.1096 53.0537 23.8087 53.7238 23.8087 54.5505Z" fill="#EEEFEF"/>
<path d="M31.0256 17.9992V1.27312C31.0256 0.908402 30.5656 0.725956 30.2965 0.983701L29.4564 1.78913C29.0974 2.13325 28.5155 2.13325 28.1564 1.78913L27.2372 0.908056C26.8781 0.563934 26.2962 0.563934 25.9372 0.908056L25.0169 1.79017C24.6584 2.13377 24.077 2.13429 23.718 1.79121L22.7917 0.906151C22.4325 0.563068 21.8513 0.563415 21.4928 0.907191L20.5725 1.78913C20.2134 2.13325 19.6315 2.13325 19.2725 1.78913L18.3532 0.908056C17.9942 0.564107 17.4123 0.564107 17.0533 0.908056L16.1331 1.79C15.7744 2.1336 15.1933 2.13412 14.8342 1.79103L13.9079 0.905978C13.5487 0.562895 12.9676 0.563242 12.6089 0.907017L11.6885 1.78896C11.3295 2.13308 10.7476 2.13308 10.3886 1.78896L9.54842 0.983528C9.27933 0.725783 8.81934 0.908402 8.81934 1.27295V17.999L31.0256 17.9992Z" fill="#EEEFEF"/>
<path d="M32.8572 21.1118H6.98667C5.83787 21.1118 4.90308 22.0078 4.90308 23.109V37.8529C4.90308 38.9542 5.83787 39.8502 6.98667 39.8502H32.8572C34.006 39.8502 34.9408 38.9542 34.9408 37.8529V23.109C34.9408 22.0078 34.006 21.1118 32.8572 21.1118ZM33.5863 37.8529C33.5863 38.2384 33.259 38.5519 32.8572 38.5519H6.98667C6.58483 38.5519 6.25758 38.2383 6.25758 37.8529V23.109C6.25758 22.7235 6.58483 22.4101 6.98667 22.4101H32.8572C33.259 22.4101 33.5863 22.7237 33.5863 23.109V37.8529Z" fill="#02397A"/>
<path d="M11.7915 42.1504H7.1418C5.9074 42.1504 4.90308 43.1132 4.90308 44.2963V48.7399C4.90308 49.9232 5.90758 50.8858 7.1418 50.8858H11.7915C13.0261 50.8858 14.0305 49.9231 14.0305 48.7399V44.2963C14.0306 43.1132 13.0261 42.1504 11.7915 42.1504ZM12.6761 48.7401C12.6761 49.2075 12.2793 49.5878 11.7917 49.5878H7.14198C6.65436 49.5878 6.25776 49.2075 6.25776 48.7401V44.2965C6.25776 43.8291 6.65436 43.4488 7.14198 43.4488H11.7917C12.2793 43.4488 12.6761 43.8291 12.6761 44.2965V48.7401Z" fill="#02397A"/>
<path d="M32.7026 42.1504H28.0529C26.8183 42.1504 25.814 43.1132 25.814 44.2963V48.7399C25.814 49.9232 26.8185 50.8858 28.0529 50.8858H32.7026C33.937 50.8858 34.9413 49.9231 34.9413 48.7399V44.2963C34.9413 43.1132 33.9368 42.1504 32.7026 42.1504ZM33.5868 48.7401C33.5868 49.2075 33.1902 49.5878 32.7026 49.5878H28.0529C27.5653 49.5878 27.1685 49.2075 27.1685 48.7401V44.2965C27.1685 43.8291 27.5653 43.4488 28.0529 43.4488H32.7026C33.1902 43.4488 33.5868 43.8291 33.5868 44.2965V48.7401Z" fill="#02397A"/>
<path d="M22.2468 42.1504H17.5971C16.3625 42.1504 15.3582 43.1132 15.3582 44.2963V48.7399C15.3582 49.9232 16.3627 50.8858 17.5971 50.8858H22.2468C23.4812 50.8858 24.4855 49.9231 24.4855 48.7399V44.2963C24.4855 43.1132 23.4812 42.1504 22.2468 42.1504ZM23.131 48.7401C23.131 49.2075 22.7344 49.5878 22.2468 49.5878H17.5971C17.1094 49.5878 16.7127 49.2075 16.7127 48.7401V44.2965C16.7127 43.8291 17.1094 43.4488 17.5971 43.4488H22.2468C22.7344 43.4488 23.131 43.8291 23.131 44.2965V48.7401Z" fill="#02397A"/>
<path d="M11.7915 52.4023H7.1418C5.9074 52.4023 4.90308 53.3651 4.90308 54.5483V58.9919C4.90308 60.1752 5.90758 61.1378 7.1418 61.1378H11.7915C13.0261 61.1378 14.0305 60.175 14.0305 58.9919V54.5483C14.0306 53.3651 13.0261 52.4023 11.7915 52.4023ZM12.6761 58.9921C12.6761 59.4594 12.2793 59.8397 11.7917 59.8397H7.14198C6.65436 59.8397 6.25776 59.4594 6.25776 58.9921V54.5484C6.25776 54.0811 6.65436 53.7008 7.14198 53.7008H11.7917C12.2793 53.7008 12.6761 54.0811 12.6761 54.5484V58.9921Z" fill="#02397A"/>
<path d="M32.7026 52.4023H28.0529C26.8183 52.4023 25.814 53.3651 25.814 54.5483V58.9919C25.814 60.1752 26.8185 61.1378 28.0529 61.1378H32.7026C33.937 61.1378 34.9413 60.175 34.9413 58.9919V54.5483C34.9413 53.3651 33.9368 52.4023 32.7026 52.4023ZM33.5868 58.9921C33.5868 59.4594 33.1902 59.8397 32.7026 59.8397H28.0529C27.5653 59.8397 27.1685 59.4594 27.1685 58.9921V54.5484C27.1685 54.0811 27.5653 53.7008 28.0529 53.7008H32.7026C33.1902 53.7008 33.5868 54.0811 33.5868 54.5484V58.9921Z" fill="#02397A"/>
<path d="M22.2468 52.4023H17.5971C16.3625 52.4023 15.3582 53.3651 15.3582 54.5483V58.9919C15.3582 60.1752 16.3627 61.1378 17.5971 61.1378H22.2468C23.4812 61.1378 24.4855 60.175 24.4855 58.9919V54.5483C24.4855 53.3651 23.4812 52.4023 22.2468 52.4023ZM23.131 58.9921C23.131 59.4594 22.7344 59.8397 22.2468 59.8397H17.5971C17.1094 59.8397 16.7127 59.4594 16.7127 58.9921V54.5484C16.7127 54.0811 17.1094 53.7008 17.5971 53.7008H22.2468C22.7344 53.7008 23.131 54.0811 23.131 54.5484V58.9921Z" fill="#02397A"/>
<path d="M19.9282 27.641C20.5739 27.641 21.0993 28.1497 21.0993 28.7748C21.0993 29.1331 21.4023 29.4239 21.7765 29.4239C22.1507 29.4239 22.4538 29.1331 22.4538 28.7748C22.4538 27.6581 21.6671 26.7171 20.6001 26.4327V26.1862C20.6001 25.8279 20.297 25.5371 19.9228 25.5371C19.5486 25.5371 19.2456 25.8279 19.2456 26.1862V26.4345C18.1773 26.7211 17.3906 27.6605 17.3906 28.7746C17.3906 30.0943 18.504 31.1691 19.8818 31.193C19.8957 31.1938 19.9087 31.1969 19.9228 31.1969C19.9266 31.1969 19.9302 31.1959 19.9342 31.1959C20.5771 31.1992 21.0993 31.7062 21.0993 32.3292C21.0993 32.9478 20.5739 33.4512 19.9282 33.4512C19.2759 33.4512 18.7453 32.9478 18.7453 32.3292C18.7453 31.9709 18.4423 31.6801 18.0681 31.6801C17.6939 31.6801 17.3908 31.9709 17.3908 32.3292C17.3908 33.4381 18.1775 34.3726 19.2458 34.6581V34.7796C19.2458 35.1379 19.5488 35.4287 19.923 35.4287C20.2972 35.4287 20.6003 35.1379 20.6003 34.7796V34.66C21.6672 34.3769 22.4539 33.4407 22.4539 32.3294C22.4539 30.9908 21.3248 29.9013 19.9353 29.8977C19.9311 29.8977 19.9272 29.8964 19.923 29.8964C19.9225 29.8964 19.9219 29.8966 19.9212 29.8966C19.2721 29.893 18.7453 29.3917 18.7453 28.7749C18.7453 28.1497 19.2759 27.641 19.9282 27.641Z" fill="#02397A"/>
<path d="M31.0214 0.294615C30.6077 0.13069 30.1352 0.220183 29.8175 0.524146L28.9776 1.32958C28.8829 1.41993 28.7292 1.41993 28.6351 1.32958L27.7161 0.4485C27.0935 -0.148173 26.0805 -0.148173 25.4584 0.4485L24.538 1.33044C24.4439 1.4208 24.2906 1.4208 24.1962 1.33044L23.2699 0.445558C22.6473 -0.149038 21.6351 -0.148692 21.014 0.447635L20.0938 1.32958C19.9995 1.41959 19.8458 1.41959 19.7514 1.32958L18.8321 0.4485C18.2096 -0.148173 17.1968 -0.148173 16.5746 0.4485L15.6543 1.33044C15.5602 1.4208 15.4069 1.4208 15.3124 1.33044L14.3861 0.445558C13.7638 -0.149038 12.7511 -0.148692 12.1302 0.447635L11.2101 1.32958C11.1158 1.41993 10.9617 1.41993 10.8678 1.32958L10.0271 0.523627C9.71036 0.219837 9.23809 0.129825 8.82361 0.294615C8.40967 0.45906 8.1422 0.843167 8.1422 1.27245V13.4739H4.89645C2.19647 13.4739 0 15.5793 0 18.1669V61.3069C0 63.8946 2.19647 66 4.89645 66H34.9493C37.6493 66 39.8457 63.8946 39.8457 61.3069V18.1669C39.8457 15.5793 37.6493 13.4739 34.9493 13.4739H31.7028V1.27245C31.7028 0.843167 31.4354 0.45906 31.0214 0.294615ZM9.49617 1.85147L9.90938 2.24752C10.5314 2.8442 11.5444 2.8442 12.1671 2.24752L13.0874 1.36558C13.1813 1.27522 13.335 1.27436 13.4293 1.36524L14.3554 2.25012C14.9781 2.84472 15.9898 2.84471 16.6113 2.24839L17.5316 1.36645C17.6259 1.27609 17.7794 1.27609 17.8739 1.36645L18.7931 2.24752C19.4151 2.8442 20.4281 2.8442 21.0508 2.24752L21.9712 1.36558C22.0653 1.27522 22.2188 1.2747 22.3129 1.36524L23.2392 2.25012C23.8619 2.84472 24.8736 2.84471 25.495 2.24839L26.4154 1.36645C26.51 1.27557 26.6637 1.27643 26.7578 1.36645L27.6769 2.24752C28.2992 2.8442 29.312 2.8442 29.9347 2.24752L30.3476 1.85147V17.3492H9.49617V1.85147ZM34.9488 14.7723C36.9018 14.7723 38.4907 16.2954 38.4907 18.1671V61.3071C38.4907 63.1788 36.9018 64.7019 34.9488 64.7019H4.89572C2.94271 64.7019 1.35378 63.1788 1.35378 61.3071V18.1669C1.35378 16.2952 2.94271 14.7721 4.89572 14.7721H8.14148V17.3492H5.58056C5.20636 17.3492 4.90331 17.64 4.90331 17.9984C4.90331 18.3567 5.20636 18.6475 5.58056 18.6475C11.5055 18.6475 28.0991 18.6475 34.2636 18.6475C34.6378 18.6475 34.9408 18.3567 34.9408 17.9984C34.9408 17.64 34.6378 17.3492 34.2636 17.3492H31.7026V14.7721L34.9488 14.7723Z" fill="#02397A"/>
<path d="M22.557 10.5835H12.6238C12.2496 10.5835 11.9465 10.8743 11.9465 11.2326C11.9465 11.5909 12.2496 11.8817 12.6238 11.8817H22.557C22.9312 11.8817 23.2343 11.5909 23.2343 11.2326C23.2343 10.8743 22.931 10.5835 22.557 10.5835Z" fill="#02397A"/>
<path d="M27.2219 5.58496H12.6238C12.2496 5.58496 11.9465 5.87577 11.9465 6.23408C11.9465 6.5924 12.2496 6.88321 12.6238 6.88321H27.2219C27.5961 6.88321 27.8992 6.5924 27.8992 6.23408C27.8992 5.87577 27.5959 5.58496 27.2219 5.58496Z" fill="#02397A"/>
</svg>
