<svg width="30" height="30" viewBox="0 0 30 30" fill="none" xmlns="http://www.w3.org/2000/svg">
<g clip-path="url(#clip0_216_181)">
<path d="M18.2483 10.0487L13.4363 15.8202L11.7517 13.8006C11.5942 13.6116 11.4011 13.4554 11.1832 13.3411C10.9654 13.2267 10.7272 13.1564 10.4821 13.1342C10.2371 13.1119 9.99013 13.1381 9.75524 13.2113C9.52036 13.2845 9.30218 13.4032 9.11318 13.5607C8.92418 13.7182 8.76805 13.9114 8.65371 14.1292C8.53937 14.347 8.46906 14.5853 8.44678 14.8303C8.42451 15.0753 8.45071 15.3223 8.52389 15.5572C8.59708 15.7921 8.71581 16.0102 8.87331 16.1992L11.9971 19.9492C12.1727 20.1605 12.3926 20.3306 12.6412 20.4473C12.8899 20.5641 13.1612 20.6247 13.4359 20.6249C13.7106 20.6251 13.982 20.5648 14.2308 20.4484C14.4796 20.3319 14.6997 20.1621 14.8755 19.9511L21.1267 12.4511C21.2856 12.2622 21.4057 12.0439 21.4799 11.8085C21.5542 11.5732 21.5813 11.3254 21.5596 11.0796C21.538 10.8338 21.4679 10.5946 21.3536 10.3759C21.2393 10.1572 21.0829 9.96316 20.8934 9.80502C20.704 9.64688 20.4851 9.52772 20.2495 9.45436C20.0138 9.381 19.766 9.35489 19.5203 9.37754C19.2745 9.40018 19.0356 9.47113 18.8174 9.58631C18.5991 9.7015 18.4057 9.85865 18.2483 10.0487Z" fill="#90C72E"/>
<path d="M15 0C12.0333 0 9.13319 0.879735 6.66645 2.52796C4.19972 4.17618 2.27713 6.51886 1.14181 9.25975C0.00649929 12.0006 -0.290551 15.0166 0.288228 17.9264C0.867006 20.8361 2.29562 23.5088 4.3934 25.6066C6.49119 27.7044 9.16394 29.133 12.0737 29.7118C14.9834 30.2906 17.9994 29.9935 20.7403 28.8582C23.4811 27.7229 25.8238 25.8003 27.472 23.3336C29.1203 20.8668 30 17.9667 30 15C29.9958 11.0231 28.4141 7.2102 25.6019 4.39808C22.7898 1.58595 18.977 0.0042353 15 0ZM15 26.25C12.775 26.25 10.5999 25.5902 8.74984 24.354C6.89979 23.1179 5.45785 21.3609 4.60636 19.3052C3.75488 17.2495 3.53209 14.9875 3.96617 12.8052C4.40026 10.6229 5.47171 8.61839 7.04505 7.04505C8.6184 5.47171 10.623 4.40025 12.8052 3.96617C14.9875 3.53208 17.2495 3.75487 19.3052 4.60636C21.3609 5.45784 23.1179 6.89978 24.354 8.74984C25.5902 10.5999 26.25 12.775 26.25 15C26.2468 17.9827 25.0604 20.8423 22.9514 22.9514C20.8423 25.0604 17.9827 26.2467 15 26.25Z" fill="#90C72E"/>
</g>
<defs>
<clipPath id="clip0_216_181">
<rect width="30" height="30" fill="white"/>
</clipPath>
</defs>
</svg>
