<svg width="30" height="30" viewBox="0 0 30 30" fill="none" xmlns="http://www.w3.org/2000/svg">
<path d="M22.5 12.5001C22.5039 10.24 21.742 8.04515 20.3386 6.2735C18.9351 4.50185 16.9729 3.25788 14.7719 2.7444C12.5708 2.23093 10.2607 2.47823 8.21819 3.44599C6.17569 4.41376 4.52127 6.0449 3.52467 8.07348C2.52806 10.1021 2.24804 12.4084 2.73028 14.6165C3.21252 16.8247 4.42856 18.8043 6.18014 20.2327C7.93172 21.6611 10.1155 22.454 12.3755 22.4821C14.6355 22.5103 16.8384 21.772 18.625 20.3876L26.625 28.3876L28.3875 26.6251L20.3875 18.6251C21.7519 16.8745 22.4951 14.7197 22.5 12.5001ZM12.5 20.0001C11.0166 20.0001 9.56659 19.5603 8.33322 18.7362C7.09985 17.912 6.13856 16.7407 5.5709 15.3703C5.00324 13.9998 4.85472 12.4918 5.14411 11.037C5.4335 9.5821 6.1478 8.24573 7.1967 7.19684C8.24559 6.14794 9.58196 5.43364 11.0368 5.14425C12.4917 4.85486 13.9997 5.00338 15.3701 5.57104C16.7406 6.1387 17.9119 7.09999 18.736 8.33336C19.5601 9.56673 20 11.0168 20 12.5001C20 14.4893 19.2098 16.3969 17.8033 17.8034C16.3968 19.21 14.4891 20.0001 12.5 20.0001Z" fill="#90C72E"/>
</svg>
