<svg width="40" height="40" viewBox="0 0 40 40" fill="none" xmlns="http://www.w3.org/2000/svg">
<path d="M27.1758 21.2793C27.1423 21.2674 27.1079 21.2585 27.0729 21.2526L27.0642 21.2459L26.9842 21.1915C26.9169 21.1508 26.847 21.1147 26.775 21.0833C26.5802 21 26.3788 20.9331 26.1729 20.8835C24.7104 20.5511 23.3456 19.8822 22.187 18.9299C19.5867 16.6099 17.9217 13.4214 17.5038 9.96178C17.4158 9.46393 17.3534 8.96189 17.3169 8.45765L17.2831 8.07648L17.2661 7.88552L17.2575 7.78992L17.2553 7.76611C17.251 7.69736 17.2391 7.6293 17.2199 7.56316C17.1745 7.40376 17.0823 7.26163 16.9553 7.15514C16.8283 7.04865 16.6723 6.98268 16.5074 6.96576C16.3425 6.94884 16.1764 6.98174 16.0304 7.06022C15.8844 7.13869 15.7653 7.25914 15.6885 7.406C15.6294 7.52126 15.5952 7.64762 15.5879 7.77693L15.5795 7.86467C15.5004 7.86902 15.5089 7.86926 15.5795 7.86467L15.5788 7.87261L15.5606 8.06411L15.5242 8.44763C15.4338 9.47197 15.2625 10.4875 15.0119 11.4849C14.546 13.4171 13.7087 15.2402 12.5468 16.8528C11.5154 18.2567 10.1546 19.3855 8.58438 20.1398L7.78963 20.4526C7.40419 20.5899 6.87158 20.6945 6.58388 20.8182L5.58618 21.1687L5.10103 21.3392C5.01901 21.3827 5.06219 21.4055 5.03686 21.4392L4.98323 21.6216L4.95736 21.7098C4.95343 21.7462 4.95172 21.7828 4.95225 21.8194C4.95048 21.8424 4.95373 21.8654 4.96179 21.887L5.05776 22.2102C5.27402 22.3777 5.50111 22.5307 5.73755 22.6682C6.55814 22.7664 7.3634 22.9658 8.13494 23.262L8.48565 23.3983C8.58363 23.4349 8.67847 23.4794 8.76924 23.5313L9.37049 23.8418C10.3102 24.3956 11.1619 25.0868 11.8974 25.8924C13.6264 27.9216 14.7968 30.3664 15.2931 32.9858C15.44 33.7106 15.5482 34.4428 15.6172 35.1792L15.6722 35.7299L15.679 35.7986C15.6828 35.859 15.6925 35.9188 15.7079 35.9773C15.7468 36.1268 15.8316 36.2602 15.9505 36.3589C16.0693 36.4576 16.2161 36.5164 16.3702 36.5271C16.5243 36.5378 16.6779 36.4999 16.8092 36.4187C16.9406 36.3374 17.0431 36.217 17.1024 36.0743C17.1373 35.9896 17.158 35.8996 17.1635 35.8081L17.1664 35.7737L17.1896 35.4995L17.2827 34.4109C17.4498 33.0465 17.7589 31.7033 18.205 30.4032C18.8324 28.5241 19.8783 26.8119 21.2637 25.3958C22.3988 24.2479 23.7936 23.3902 25.3301 22.8952C26.3667 22.5529 26.9692 22.5206 27.0741 22.4109C27.137 22.3661 27.0199 22.1796 27.146 22.182C27.26 22.1595 27.3606 22.0935 27.4266 21.9979C27.4925 21.9023 27.5186 21.7847 27.4991 21.6702C27.484 21.5657 27.4349 21.4692 27.3595 21.3954C27.3071 21.3442 27.2445 21.3046 27.1758 21.2793Z" fill="#EEEFEF"/>
<path d="M34.8737 10.9156C34.8139 10.8092 34.7158 10.7297 34.5993 10.6932C34.4548 10.661 34.5525 10.6708 34.5167 10.6576L34.4874 10.6117C34.4647 10.5804 34.4389 10.5515 34.4103 10.5254C34.345 10.4665 34.2694 10.42 34.1873 10.3883C33.9413 10.321 33.7002 10.237 33.4655 10.1371C32.8922 9.86143 32.3938 9.45158 32.0126 8.9423C31.8867 8.77784 31.7711 8.60577 31.6663 8.42709L31.5052 8.13989L31.309 7.71645C31.2091 7.45465 31.127 7.18641 31.0632 6.91354C30.9896 6.61065 30.9018 6.38375 30.8392 5.99847C30.7713 5.64272 30.7027 5.28383 30.6335 4.9218C30.6181 4.80028 30.5948 4.81019 30.5735 4.78784L30.5086 4.73077L30.3779 4.61633L30.2512 4.50853L30.1831 4.47853L30.0574 4.42528L29.9992 4.40185L29.9846 4.39644C29.9754 4.3933 29.9295 4.3962 29.9418 4.39713L29.9125 4.40407C29.8951 4.40414 29.7944 4.43512 29.6949 4.46395C29.6047 4.52061 29.5189 4.58388 29.4381 4.65324C29.3859 4.68808 29.3387 4.72967 29.2975 4.77692L29.1387 5.21817C29.0709 6.03484 28.8961 6.83906 28.6188 7.6102C28.458 7.97657 28.4342 8.01868 28.3618 8.15678L28.1536 8.51193C27.8835 8.94178 27.5388 9.31984 27.1355 9.62825C27.0913 9.66569 27.0439 9.6993 26.994 9.72874L26.7704 9.87644C26.4779 10.0142 26.1716 10.1205 25.8566 10.1935C25.7027 10.2327 25.5513 10.2817 25.4035 10.3401L25.0079 10.4943C24.802 10.6111 24.6517 10.7549 24.6923 10.8169L24.6161 11.0274L24.6073 11.1154C24.6036 11.1809 24.6069 11.2466 24.6173 11.3114L24.6853 11.4915L24.7128 11.5625L24.7287 11.6035L24.8344 11.6699C24.985 11.7631 25.1634 11.8737 25.3779 12.0067C25.7062 12.0798 26.0248 12.1891 26.4234 12.3004C26.5997 12.3505 26.7656 12.4317 26.9133 12.5402L27.1086 12.6655C27.4116 12.8911 27.6856 13.1533 27.9242 13.4462C28.0616 13.6199 28.1877 13.8023 28.3015 13.9923C28.4767 14.2716 28.6215 14.5689 28.7334 14.8791C29.0809 15.7628 29.1732 17.4632 29.6525 17.6523C29.6814 17.7118 29.7268 17.7617 29.7832 17.7962C29.8396 17.8306 29.9047 17.8483 29.9708 17.8469C30.1523 17.8469 30.4727 17.9349 30.7133 16.7913C30.9266 15.7773 31.0045 15.2401 31.1848 14.655C31.3134 14.3472 31.3643 14.2597 31.415 14.1462L31.5971 13.828C31.7891 13.5085 32.0225 13.2158 32.2912 12.9575C32.9545 12.416 33.715 12.0062 34.532 11.75C34.5548 11.712 34.4813 11.5169 34.5874 11.5264C34.6536 11.5168 34.7163 11.4909 34.77 11.451C34.8237 11.4112 34.8667 11.3586 34.8951 11.2981C34.9235 11.2376 34.9364 11.1709 34.9327 11.1041C34.9289 11.0374 34.9087 10.9726 34.8737 10.9156Z" fill="#EEEFEF"/>
</svg>
