<svg width="38" height="38" viewBox="0 0 38 38" fill="none" xmlns="http://www.w3.org/2000/svg">
<path fill-rule="evenodd" clip-rule="evenodd" d="M35.6931 36.2687C35.6303 34.1969 33.0375 30.8096 30.789 30.5128C28.5678 30.2258 26.9311 29.0289 25.6231 27.8968C25.3032 27.6199 25.0148 27.4863 24.742 27.4863C24.4181 27.4863 24.1316 27.6718 23.8663 28.0551C23.1598 29.0753 22.2234 29.893 21.3178 30.6848C20.8465 31.0967 20.3589 31.5222 19.9095 31.9717C19.7397 32.138 19.5999 32.2151 19.4692 32.2151C19.3448 32.2151 19.2179 32.1428 19.0819 31.9935C18.614 31.4779 18.0562 31.0517 17.5164 30.6398C17.1932 30.3929 16.8699 30.146 16.5626 29.8787C15.0336 28.5516 14.3991 27.056 14.6228 25.3054C14.6296 25.2495 14.6296 25.1874 14.6296 25.1246C14.6292 25.0025 14.6292 24.8757 14.6882 24.8171C14.7192 24.7857 14.7687 24.7707 14.8396 24.7707C14.8696 24.7707 14.903 24.7734 14.9402 24.7788C15.0581 24.7979 15.1738 24.8109 15.2826 24.8109C15.66 24.8109 15.8977 24.6465 16.0089 24.3084C16.1954 23.7232 15.7824 23.4108 15.4179 23.136L15.3467 23.0821C13.8579 21.9596 12.7105 20.4811 11.839 18.563C11.2613 17.2922 11.2024 16.0186 11.6641 14.7771C12.3996 12.7653 13.3039 11.4235 14.6409 10.392C14.8601 10.2208 14.9924 10.1175 15.1122 10.1175C15.2195 10.1175 15.3447 10.2007 15.5589 10.4148C18.4862 13.3198 21.2106 15.1628 24.1329 16.2147C24.8217 16.4637 25.0359 16.8343 24.896 17.537L24.806 18.0175C24.4746 19.7992 24.1609 21.4823 22.7158 22.744C22.5146 22.9186 22.398 23.1368 22.3877 23.3604C22.3782 23.561 22.458 23.7547 22.6169 23.919C22.7683 24.0758 22.9436 24.1556 23.1379 24.1556C23.3453 24.1556 23.5676 24.0656 23.8015 23.8882C24.6151 23.2718 25.2091 22.4732 25.5671 21.5149C26.0841 20.1408 26.391 18.846 26.5055 17.5561C26.5478 17.0463 26.6044 16.7231 27.0389 16.5283C27.4133 16.3629 27.5694 16.0274 27.4562 15.6301C27.3608 15.3035 27.1023 15.1152 26.7292 15.0999C24.8701 15.017 23.3016 14.2341 21.5176 13.0846C18.3703 11.0582 16.026 9.07742 14.8145 5.99586C14.6194 5.48954 14.3582 5.24365 14.0156 5.24365C13.9034 5.24365 13.782 5.27126 13.6548 5.32581C13.4294 5.42326 13.2777 5.56962 13.2044 5.76051C13.1133 5.99816 13.1474 6.30372 13.3033 6.64364C13.5334 7.14595 13.7977 7.63899 14.0777 8.16134C14.209 8.40619 14.3444 8.65853 14.4824 8.92349C14.0582 9.0323 13.619 9.18096 13.2355 9.48273C11.2707 11.0145 10.1529 13.1238 9.81843 15.9321C9.51732 18.4367 10.7851 20.4652 12.2002 22.284C13.0701 23.4038 13.0046 24.6736 12.9412 25.9011C12.9081 26.5381 12.8743 27.1976 12.9698 27.8352C12.9756 27.8666 12.8941 27.9498 12.845 27.9996C12.8031 28.0425 12.7608 28.0862 12.7294 28.1285C11.8646 29.3055 10.825 30.4103 9.08826 30.5249C8.6474 30.5508 8.20988 30.6818 7.78676 30.8086C7.47883 30.9014 7.16036 30.9968 6.84597 31.05C4.83998 31.3787 3.50018 32.5647 2.75035 34.6754C2.70738 34.7962 2.65045 34.9264 2.59145 35.0601C2.40561 35.4836 2.19527 35.963 2.3518 36.3381C2.43195 36.5304 2.6031 36.6791 2.86086 36.7773C2.9877 36.8264 3.10638 36.8502 3.2134 36.8502C3.76173 36.8502 3.93459 36.2549 4.08733 35.7297C4.1303 35.5824 4.17157 35.4392 4.21966 35.3178C4.81363 33.8093 5.78857 32.933 7.19984 32.639C7.94017 32.4849 8.67561 32.3048 9.41082 32.1262C9.84834 32.0198 10.2858 31.9134 10.7243 31.8111C10.8798 31.7756 11.0196 31.7579 11.1515 31.7579C11.5321 31.7579 11.8441 31.9066 12.1339 32.2257C12.8585 33.0291 13.6172 33.8202 14.3506 34.5868C14.7431 34.9959 15.1359 35.4059 15.5257 35.8198C16.0201 36.3456 16.3932 36.5699 16.7734 36.5699C17.1383 36.5699 17.5222 36.355 18.018 35.8716L18.1588 35.7345C18.7132 35.191 19.0187 34.8916 19.2612 34.8916C19.521 34.8916 19.7813 35.2428 20.2995 35.9439L20.3936 36.0708C20.5164 36.2426 20.6616 36.4363 20.8437 36.5789C21.0347 36.7241 21.2597 36.808 21.4616 36.808C21.6662 36.808 21.8312 36.7255 21.9417 36.5686C22.3659 35.9466 22.9456 35.4468 23.5076 34.9632C24.2059 34.3617 24.9288 33.7398 25.3502 32.8791C25.8256 31.906 26.4591 31.4524 27.3423 31.4524C27.6526 31.4524 27.9922 31.5083 28.3796 31.6215C28.5951 31.6863 28.8215 31.7245 29.0343 31.7559C31.7683 32.1166 33.4071 33.6824 34.0454 36.5441C34.1423 36.9886 34.3223 37.4975 34.8632 37.4975C34.9171 37.4975 34.9743 37.4927 35.0357 37.4818C35.7203 37.3571 35.7026 36.6759 35.6931 36.2687ZM25.3134 29.9509L25.2521 30.0805C25.2138 30.163 25.1757 30.2462 25.1259 30.3254C24.212 31.853 23.108 33.1555 21.8463 34.1969C21.6738 34.3381 21.5381 34.4043 21.418 34.4043C21.2918 34.4043 21.1677 34.3306 21.0266 34.1723C20.7313 33.8382 20.5635 33.5926 20.9161 33.2462C21.3976 32.779 21.9172 32.3344 22.4205 31.9041C23.1953 31.2412 23.996 30.5566 24.6833 29.7695C24.7665 29.6747 24.8511 29.6262 24.935 29.6262C25.0768 29.6263 25.2173 29.7695 25.3134 29.9509ZM16.3745 34.3347C16.3332 34.2828 16.2926 34.2323 16.2521 34.1894C15.8347 33.7563 15.4242 33.3137 15.0136 32.8711C14.4541 32.2683 13.8942 31.6646 13.3152 31.0816C13.1054 30.8723 13.0045 30.6806 13.0072 30.4964C13.0113 30.2148 13.2568 29.9822 13.4945 29.7586L13.6179 29.6399C13.7441 29.5138 13.8549 29.4497 13.9473 29.4497C14.1124 29.4497 14.23 29.6659 14.334 29.8568C14.3762 29.9346 14.4172 30.0089 14.4591 30.0675C14.9668 30.7707 15.6505 31.2855 16.3114 31.7834C16.7437 32.1087 17.1908 32.4456 17.5799 32.8296L17.6961 32.9366C17.8683 33.0928 18.0313 33.2401 18.0729 33.4453C17.8257 33.8831 17.4594 34.2535 16.952 34.5774C16.8879 34.6197 16.8289 34.6401 16.7726 34.6401C16.621 34.6401 16.4955 34.4847 16.3745 34.3347Z" fill="#90C72E"/>
<path fill-rule="evenodd" clip-rule="evenodd" d="M7.40415 20.6563C7.54465 20.674 7.67423 20.6829 7.79283 20.6829C8.5751 20.6829 8.91844 20.2825 8.941 19.3445C8.97343 17.8398 8.97135 16.3622 8.93447 14.9533C8.86017 12.4402 9.26148 10.0301 10.1614 7.58556C10.8178 5.79028 12.061 4.35608 13.856 3.32288C15.2963 2.50039 16.8546 2.08335 18.4879 2.08335C22.4914 2.08335 26.0881 4.5889 27.2353 8.17679C27.9193 10.3001 28.1927 12.21 28.0713 14.024C28.145 15.612 28.0399 17.0185 27.7509 18.3235C27.4488 19.6418 27.1125 20.8124 26.7238 21.9022C26.0267 23.8567 24.7175 25.1211 22.8318 25.6592L22.7295 25.6886C22.5897 25.7294 22.4451 25.771 22.3169 25.771C22.1723 25.771 22.0713 25.7158 22.0004 25.5958C21.416 24.6199 20.5424 24.4883 19.7642 24.4883C19.5323 24.4883 19.2964 24.5005 19.0601 24.5128L18.919 24.5203C17.7252 24.5851 16.9617 25.3339 16.8771 26.5232C16.7847 27.7194 17.5533 28.7042 18.7048 28.8644C18.9833 28.9033 19.2354 28.9224 19.4748 28.9224C20.4121 28.9224 21.1384 28.6196 21.6956 27.9962C22.0904 27.5632 22.6272 27.3839 23.1011 27.2652C25.7976 26.5709 27.5551 24.8189 28.4723 21.909C28.6824 21.2474 28.9743 21.0142 29.6282 20.9856C31.2016 20.9078 32.1741 20.1167 32.5212 18.6328C32.8929 17.0407 32.7838 15.4299 32.1966 13.845C31.8986 13.042 31.4342 12.6028 30.8538 12.5748C29.8186 12.5118 29.719 11.8554 29.603 11.0953L29.5866 10.9858C29.2279 8.61252 28.6155 6.80055 27.6566 5.28314C26.1856 2.93516 22.6871 0.407715 18.4831 0.407715C17.4366 0.407715 16.4085 0.572406 15.4278 0.89741C12.2518 1.95377 10.2526 3.54613 9.13627 5.90918C8.22991 7.82796 7.6683 9.60854 7.41907 11.3527C7.33045 11.9682 7.10705 12.1956 6.5349 12.2529C5.51603 12.3494 4.85926 13.0071 4.68537 14.1051C4.5497 15.0094 4.40816 16.0797 4.38768 17.1637C4.34344 19.555 5.0483 20.3706 7.40415 20.6563ZM6.78658 13.957L6.82614 14.0211C7.12821 14.0459 7.20191 14.2587 7.22269 14.5926L7.25579 15.2748C7.30284 16.2484 7.3499 17.2246 7.38062 18.1957L7.38575 18.3171C7.40311 18.6585 7.38983 18.8689 7.06282 18.9081C7.01985 18.9136 6.97784 18.9162 6.93702 18.9162C6.59532 18.9162 6.33214 18.7205 6.19639 18.3662C6.0556 17.9815 6.06651 17.5931 6.07846 17.1816C6.08358 17.0047 6.08833 16.8274 6.08083 16.652C6.06035 15.8507 6.13405 15.147 6.30586 14.4997C6.39381 14.1676 6.54084 14.0196 6.7822 14.0196V13.9575C6.78391 13.9577 6.78487 13.957 6.78658 13.957ZM30.2277 14.2318C30.4575 14.2318 30.6301 14.3795 30.7405 14.6713C31.0051 15.3424 31.147 16.0867 31.121 16.6657C31.1081 17.9243 31.0174 18.8501 29.9576 19.3039C29.7775 19.3797 29.6411 19.4161 29.5389 19.4161C29.4625 19.4161 29.4065 19.3954 29.3684 19.3521C29.2954 19.2685 29.2749 19.0946 29.3083 18.8347C29.3628 18.4228 29.4344 18.013 29.5054 17.6027C29.6615 16.6991 29.8239 15.7648 29.802 14.8213C29.7952 14.4952 29.8538 14.2709 30.1621 14.2354C30.1854 14.2329 30.2066 14.2318 30.2277 14.2318Z" fill="#90C72E"/>
</svg>
