<svg width="40" height="40" viewBox="0 0 40 40" fill="none" xmlns="http://www.w3.org/2000/svg">
<path d="M38.0234 15.3602L36.6467 6.41356C36.5862 6.02017 36.3869 5.66142 36.0849 5.40219C35.7829 5.14296 35.3981 5.00038 35 5.00023C25.8884 5.00023 21.2184 0.526894 21.1784 0.488561C20.8661 0.178143 20.4437 0.00390625 20.0034 0.00390625C19.5631 0.00390625 19.1406 0.178143 18.8284 0.488561C18.7817 0.526894 14.1117 5.00023 5.00004 5.00023C4.60202 5.00038 4.2172 5.14296 3.91517 5.40219C3.61315 5.66142 3.41387 6.02017 3.35337 6.41356L1.9767 15.3602C1.35923 19.4243 2.00557 23.58 3.8282 27.2647C5.65083 30.9493 8.56171 33.9848 12.1667 35.9602L19.2 39.7936C19.4449 39.9272 19.7194 39.9972 19.9984 39.9972C20.2773 39.9972 20.5518 39.9272 20.7967 39.7936L27.83 35.9602C31.4357 33.9853 34.3472 30.95 36.1705 27.2653C37.9937 23.5807 38.6405 19.4247 38.0234 15.3602ZM26.2367 33.0269L20 36.4352L13.7634 33.0336C10.7579 31.3883 8.33066 28.8592 6.8103 25.7886C5.28994 22.7181 4.74992 19.2545 5.26337 15.8669L6.43004 8.29856C11.2962 8.1896 16.0199 6.63533 20 3.83356C23.9786 6.63499 28.7004 8.18979 33.565 8.30023L34.7317 15.8669C35.2456 19.254 34.7063 22.7172 33.1869 25.7877C31.6675 28.8581 29.2412 31.3876 26.2367 33.0336V33.0269Z" fill="#EEEFEF"/>
<path d="M25.4884 13.8219L16.6667 22.6435L14.5117 20.4885C14.358 20.3293 14.1741 20.2024 13.9707 20.115C13.7674 20.0277 13.5487 19.9817 13.3274 19.9798C13.1061 19.9778 12.8866 20.02 12.6818 20.1038C12.477 20.1876 12.2909 20.3114 12.1344 20.4679C11.9779 20.6244 11.8542 20.8104 11.7704 21.0153C11.6865 21.2201 11.6444 21.4396 11.6463 21.6609C11.6482 21.8822 11.6942 22.1009 11.7816 22.3042C11.8689 22.5075 11.9959 22.6914 12.1551 22.8452L15.4884 26.1785C15.8009 26.491 16.2248 26.6665 16.6667 26.6665C17.1087 26.6665 17.5325 26.491 17.8451 26.1785L27.8451 16.1785C28.1487 15.8642 28.3166 15.4432 28.3128 15.0062C28.3091 14.5692 28.1338 14.1512 27.8248 13.8422C27.5157 13.5331 27.0977 13.3579 26.6607 13.3541C26.2237 13.3503 25.8027 13.5183 25.4884 13.8219Z" fill="#EEEFEF"/>
</svg>
