<svg width="67" height="64" viewBox="0 0 67 64" fill="none" xmlns="http://www.w3.org/2000/svg">
<path fill-rule="evenodd" clip-rule="evenodd" d="M63.4884 25.7839C63.2819 25.4964 63.0359 25.2993 62.0098 25.2245C61.7409 25.2049 60.8522 25.177 59.3571 25.177C55.4277 25.177 52.7575 26.3157 51.3907 28.564C51.7674 26.3022 49.4599 25.1704 44.4622 25.1704C38.5953 25.1704 34.9315 27.4273 33.4726 31.9403C32.93 33.6188 32.8747 34.9934 33.3011 36.0677L31.9163 36.1567C30.8342 36.2359 29.4109 36.3054 28.5382 36.3054C26.3917 36.3054 25.0589 35.9617 24.5436 35.2738C24.0816 34.656 24.127 33.5089 24.6664 31.8364C25.5623 29.0655 27.7808 27.8183 31.326 27.8183C33.1635 27.8148 34.953 28.0028 34.9541 28.0028V28.0022C35.2005 27.9874 35.3096 27.7425 35.2822 27.5394L35.2466 27.2745L35.1208 26.3432C35.0377 25.7313 34.5609 25.368 33.6897 25.2558C32.8933 25.2045 32.3007 25.1704 31.4286 25.1704C31.4123 25.1704 31.3962 25.1709 31.3806 25.1709C26.7466 25.1809 23.5174 26.6344 21.6923 29.5307C22.3629 26.6238 20.2206 25.1704 15.2574 25.1704C12.4989 25.1704 10.5207 25.2447 9.32109 25.3942C8.40128 25.5033 7.84068 25.8678 7.63759 26.4849L7.24488 27.6814C7.1733 27.9007 7.28388 28.0093 7.57818 28.0093L7.58695 28.0078C7.80509 27.9814 8.64468 27.9027 10.0789 27.7928C11.9762 27.648 13.3839 27.575 14.3084 27.575C17.0394 27.575 18.1893 28.2285 17.7613 29.5339C17.6681 29.823 17.4602 30.0023 17.1418 30.0718C14.5587 30.4807 12.508 30.7757 10.9914 30.9543C6.72327 31.473 4.25749 32.7422 3.59325 34.7654C2.68234 37.5458 4.96505 38.9365 10.4384 38.9365C13.1684 38.9365 15.4601 38.7835 17.3125 38.4864C18.38 38.3154 18.9209 38.054 19.1354 37.3973L20.1532 34.298C20.0472 37.395 22.3214 38.9548 26.9797 38.9548C28.9965 38.9548 30.9087 38.8913 31.8112 38.7415C32.7664 38.5833 33.223 38.385 33.4338 37.6967L33.6404 36.7198C34.6327 38.1975 36.8103 38.9365 40.1718 38.9365C43.7171 38.9365 45.7847 38.8414 46.3745 38.6527C46.8686 38.5027 47.1737 38.2589 47.2825 37.9202C47.3034 37.8598 47.3148 37.7955 47.3258 37.7258L47.7504 36.41C47.8246 36.1815 47.7137 36.0722 47.4226 36.0818L45.1531 36.1858C43.6387 36.2647 42.4525 36.3055 41.5966 36.3055C39.9854 36.3055 38.8801 36.2014 38.2757 35.9912C37.3793 35.6618 36.953 35.0053 36.9935 34.0172L44.1812 33.1369C47.4029 32.7437 49.5584 31.7964 50.6499 30.2954L48.2145 38.3975C48.1681 38.5505 48.1869 38.6735 48.2682 38.7645C48.3593 38.866 48.5147 38.9148 48.7444 38.9148H51.7189C52.2387 38.9148 52.4243 38.6584 52.4891 38.4437L55.1182 29.698C55.4643 28.5472 56.5725 27.9874 58.5056 27.9874C60.2506 27.9874 61.566 28.0022 62.4073 28.0317C62.4297 28.0332 62.4512 28.0342 62.4725 28.0342C62.6369 28.0342 62.9334 27.977 63.0809 27.5967L63.5428 26.3959C63.6309 26.1637 63.6133 25.9582 63.4884 25.7839ZM15.5389 36.3053C14.6094 36.4442 13.2758 36.5139 11.5333 36.5139C8.51016 36.5139 7.18769 35.9313 7.57072 34.7653C7.84579 33.9288 8.63762 33.4255 9.95367 33.2563L16.8309 32.3739L15.5389 36.3053ZM47.3255 29.2198C47.0363 30.1164 45.6905 30.7299 43.2915 31.0595L37.5622 31.8364L37.7074 31.3884C38.1815 29.9144 38.8571 28.909 39.728 28.3757C40.5984 27.8432 42.0167 27.575 43.9814 27.575C46.5656 27.575 47.6795 28.1248 47.3255 29.2198Z" fill="black" fill-opacity="0.31"/>
</svg>
