<svg width="100" height="100" viewBox="0 0 100 100" fill="none" xmlns="http://www.w3.org/2000/svg">
<g clip-path="url(#clip0_306_78)">
<path fill-rule="evenodd" clip-rule="evenodd" d="M89.5833 75.9168H60.8228C62.0624 82.7939 66.1833 87.5252 69.9916 90.5002H74.9999C76.152 90.5002 77.0833 91.4314 77.0833 92.5835C77.0833 93.7356 76.152 94.6668 74.9999 94.6668H24.9999C23.8478 94.6668 22.9166 93.7356 22.9166 92.5835C22.9166 91.4314 23.8478 90.5002 24.9999 90.5002H30.0062C33.8124 87.5252 37.9374 82.7939 39.1749 75.9168H10.4166C5.8145 75.9168 2.08325 72.1856 2.08325 67.5835V19.6668C2.08325 15.0647 5.8145 11.3335 10.4166 11.3335H89.5833C94.1853 11.3335 97.9166 15.0647 97.9166 19.6668V67.5835C97.9166 72.1856 94.1853 75.9168 89.5833 75.9168ZM36.2437 90.5002H63.7541C60.4312 86.996 57.4728 82.2168 56.5478 75.9168H43.4499C42.5249 82.2168 39.5666 86.996 36.2437 90.5002ZM93.7499 19.6668C93.7499 17.3668 91.8833 15.5002 89.5833 15.5002H10.4166C8.11659 15.5002 6.24992 17.3668 6.24992 19.6668V59.2502H93.7499V19.6668ZM93.7499 63.4168H6.24992V67.5835C6.24992 69.8835 8.11659 71.7502 10.4166 71.7502H39.5833H60.4166H89.5833C91.8833 71.7502 93.7499 69.8835 93.7499 67.5835V63.4168ZM49.9999 69.6668C48.8478 69.6668 47.9166 68.7356 47.9166 67.5835C47.9166 66.4314 48.8478 65.5002 49.9999 65.5002C51.152 65.5002 52.0833 66.4314 52.0833 67.5835C52.0833 68.7356 51.152 69.6668 49.9999 69.6668Z" fill="#02397A"/>
</g>
<defs>
<clipPath id="clip0_306_78">
<rect width="100" height="100" fill="white"/>
</clipPath>
</defs>
</svg>
