<svg width="56" height="26" viewBox="0 0 56 26" fill="none" xmlns="http://www.w3.org/2000/svg">
<path d="M51.3333 4.95935C51.1057 4.63415 50.7317 4.43902 50.3415 4.43902H42.7805V1.21951C42.7805 0.552846 42.2276 0 41.561 0H14.1626C13.4959 0 12.9431 0.552846 12.9431 1.21951V20.9268C12.9431 21.5935 13.4959 22.1463 14.1626 22.1463H17.6098C18.2439 24.3577 20.2927 26 22.6992 26C25.1057 26 27.1545 24.374 27.7886 22.1463H41.3008C41.935 24.3577 43.9837 26 46.3902 26C48.7967 26 50.8455 24.374 51.4797 22.1463H54C54.6667 22.1463 55.2195 21.5935 55.2195 20.9268V10.8943C55.2195 10.6341 55.1382 10.3902 54.9919 10.1951L51.3333 4.95935ZM52.7967 11.252H47.3333V6.89431H49.7236L52.7967 11.252ZM15.3821 2.45529H40.3415V19.7236H27.9024C27.4309 17.2683 25.2845 15.4146 22.6992 15.4146C20.1138 15.4146 17.9512 17.2683 17.4959 19.7236H15.3821V2.45529ZM22.6992 23.561C21.1219 23.561 19.8374 22.2764 19.8374 20.6992C19.8374 19.122 21.1219 17.8374 22.6992 17.8374C24.2764 17.8374 25.561 19.122 25.561 20.6992C25.561 22.2764 24.2764 23.561 22.6992 23.561ZM46.4065 23.561C44.8293 23.561 43.5447 22.2764 43.5447 20.6992C43.5447 19.122 44.8293 17.8374 46.4065 17.8374C47.9837 17.8374 49.2683 19.122 49.2683 20.6992C49.2683 22.2764 47.9837 23.561 46.4065 23.561ZM51.6098 19.7236C51.1382 17.2683 48.9919 15.4146 46.4065 15.4146C45.0081 15.4146 43.7236 15.9675 42.7805 16.8618V6.89431H44.878V12.4715C44.878 13.1382 45.4309 13.6911 46.0976 13.6911H52.813V19.7236H51.6098Z" fill="#90C72E"/>
<path d="M1.21951 2.45563H9.9187C10.5854 2.45563 11.1382 1.90278 11.1382 1.23611C11.1382 0.569447 10.5854 0.0166016 9.9187 0.0166016H1.21951C0.552846 0.0166016 0 0.569447 0 1.23611C0 1.90278 0.552846 2.45563 1.21951 2.45563Z" fill="#90C72E"/>
<path d="M9.91868 4.45508H3.2195C2.55283 4.45508 1.99998 5.00792 1.99998 5.67459C1.99998 6.34126 2.55283 6.8941 3.2195 6.8941H9.91868C10.5854 6.8941 11.1382 6.34126 11.1382 5.67459C11.1382 5.00792 10.6016 4.45508 9.91868 4.45508Z" fill="#90C72E"/>
<path d="M9.9187 8.89404H5.69105C5.02439 8.89404 4.47154 9.44689 4.47154 10.1136C4.47154 10.7802 5.02439 11.3331 5.69105 11.3331H9.9187C10.5854 11.3331 11.1382 10.7802 11.1382 10.1136C11.1382 9.44689 10.6016 8.89404 9.9187 8.89404Z" fill="#90C72E"/>
<path d="M9.91872 13.3335H8.45531C7.78864 13.3335 7.23579 13.8863 7.23579 14.553C7.23579 15.2197 7.78864 15.7725 8.45531 15.7725H9.91872C10.5854 15.7725 11.1382 15.2197 11.1382 14.553C11.1382 13.8863 10.6016 13.3335 9.91872 13.3335Z" fill="#90C72E"/>
</svg>
