<svg width="67" height="64" viewBox="0 0 67 64" fill="none" xmlns="http://www.w3.org/2000/svg">
<path d="M48.6922 24.6719L43.1145 39.3439H39.0945L44.7057 24.6719H48.6922Z" fill="black" fill-opacity="0.31"/>
<path d="M58.625 32C58.625 35.1517 57.9751 38.2726 56.7125 41.1844C55.4498 44.0962 53.5991 46.742 51.266 48.9706C48.933 51.1992 46.1632 52.967 43.1149 54.1731C40.0666 55.3792 36.7994 56 33.5 56H32.7462L37.9052 42.496H44.9737C45.6347 42.4983 46.2804 42.306 46.8228 41.9453C47.3653 41.5845 47.7783 41.0729 48.0055 40.48L53.7005 25.6C53.8704 25.1552 53.9273 24.6782 53.8666 24.2082C53.8059 23.7383 53.6293 23.2888 53.3513 22.8968C53.0733 22.5047 52.7019 22.1813 52.2676 21.9531C51.8333 21.7249 51.3485 21.5984 50.853 21.584H40.5517L27.671 55.344C22.2804 54.0959 17.4738 51.1791 14.0005 47.0482C10.5272 42.9173 8.5825 37.8047 8.46968 32.5076C8.35686 27.2104 10.0822 22.0264 13.3768 17.7641C16.6713 13.5017 21.3498 10.4005 26.6827 8.944L13.9025 42.544H19.2122L26.0295 24.736H30.15L23.249 42.48H28.5587L35.0242 25.6C35.1844 25.1749 35.2411 24.7206 35.1901 24.2715C35.1391 23.8224 34.9817 23.3902 34.7299 23.0078C34.4781 22.6254 34.1384 22.3028 33.7367 22.0644C33.335 21.8261 32.8817 21.6782 32.4112 21.632H27.2355L32.3777 8C32.7462 8 33.1147 8 33.5 8C36.7994 8 40.0666 8.62078 43.1149 9.82689C46.1632 11.033 48.933 12.8008 51.266 15.0294C53.5991 17.258 55.4498 19.9038 56.7125 22.8156C57.9751 25.7274 58.625 28.8483 58.625 32Z" fill="black" fill-opacity="0.31"/>
</svg>
