<svg width="100" height="100" viewBox="0 0 100 100" fill="none" xmlns="http://www.w3.org/2000/svg">
<path d="M87.75 72.5098V24.4141C87.75 22.8496 86.4825 21.582 84.918 21.582H15.0449C13.4814 21.582 12.2129 22.8496 12.2129 24.4141V72.5098H1.02539V75.6836C1.39062 76.1084 3.20801 77.4209 8.23535 77.3115L90.6572 77.2783C90.6572 77.2783 97.0908 77.3711 99.3164 75.6836V72.5098H87.75ZM49.9814 23.665C50.2041 23.665 50.3848 23.8457 50.3848 24.0684C50.3848 24.291 50.204 24.4707 49.9814 24.4707C49.7588 24.4707 49.5791 24.291 49.5791 24.0684C49.5791 23.8457 49.7588 23.665 49.9814 23.665ZM16.3389 25.8789H83.624V68.2617H16.3389V25.8789ZM57.2266 73.1201C57.2266 73.6055 56.833 73.999 56.3477 73.999H43.0664C42.5811 73.999 42.1875 73.6055 42.1875 73.1201V72.5586H57.2266V73.1201ZM93.4453 74.1944H90.0508C89.9902 74.1944 89.9414 74.1455 89.9414 74.084C89.9414 74.0235 89.9902 73.9746 90.0508 73.9746H93.4453C93.5059 73.9746 93.5547 74.0235 93.5547 74.084C93.5547 74.1455 93.5059 74.1944 93.4453 74.1944Z" fill="#02397A"/>
</svg>
