<svg width="27" height="36" viewBox="0 0 27 36" fill="none" xmlns="http://www.w3.org/2000/svg">
<path d="M13.125 0C5.83333 0 0 5.83333 0 13.125C0 22.1667 4.95833 30.1875 12.3958 34.8542C12.8333 35.1458 13.4167 35.1458 14 34.8542C21.2917 30.0417 26.25 22.1667 26.25 13.125C26.25 5.83333 20.4167 0 13.125 0ZM13.125 18.9583C9.91667 18.9583 7.29167 16.3333 7.29167 13.125C7.29167 9.91667 9.91667 7.29167 13.125 7.29167C16.3333 7.29167 18.9583 9.91667 18.9583 13.125C18.9583 16.3333 16.3333 18.9583 13.125 18.9583Z" fill="#90C72E"/>
</svg>
