<svg width="100" height="100" viewBox="0 0 100 100" fill="none" xmlns="http://www.w3.org/2000/svg">
<path d="M22.252 48.6906C22.1053 48.8353 21.9887 49.0076 21.9089 49.1976C21.829 49.3876 21.7876 49.5915 21.7869 49.7976C21.7862 50.0037 21.8262 50.2079 21.9048 50.3984C21.9833 50.5889 22.0988 50.762 22.2445 50.9078C22.3902 51.0535 22.5633 51.1689 22.7538 51.2475C22.9444 51.326 23.1485 51.3661 23.3546 51.3654C23.5607 51.3647 23.7646 51.3233 23.9546 51.2434C24.1446 51.1636 24.3169 51.047 24.4616 50.9003C25.3247 50.0392 26.4941 49.5556 27.7133 49.5556C28.9325 49.5556 30.1019 50.0392 30.965 50.9003C31.1097 51.047 31.282 51.1636 31.472 51.2434C31.662 51.3233 31.8659 51.3647 32.072 51.3654C32.278 51.3661 32.4822 51.326 32.6728 51.2475C32.8633 51.1689 33.0364 51.0535 33.1821 50.9078C33.3278 50.762 33.4433 50.5889 33.5218 50.3984C33.6004 50.2079 33.6404 50.0037 33.6397 49.7976C33.639 49.5916 33.5976 49.3877 33.5178 49.1977C33.4379 49.0077 33.3213 48.8353 33.1746 48.6906C31.725 47.2444 29.761 46.4321 27.7133 46.4321C25.6656 46.4321 23.7016 47.2443 22.252 48.6906Z" fill="#02397A"/>
<path d="M19.7171 46.1555C21.8395 44.038 24.7152 42.8487 27.7133 42.8487C30.7114 42.8487 33.587 44.038 35.7094 46.1555C35.8545 46.3006 36.0268 46.4157 36.2163 46.4942C36.4059 46.5728 36.6091 46.6132 36.8143 46.6132C37.0195 46.6132 37.2227 46.5728 37.4123 46.4943C37.6018 46.4158 37.7741 46.3007 37.9192 46.1556C38.0643 46.0105 38.1794 45.8383 38.2579 45.6487C38.3365 45.4591 38.3769 45.2559 38.3769 45.0507C38.3769 44.8455 38.3365 44.6424 38.258 44.4528C38.1795 44.2632 38.0644 44.0909 37.9193 43.9458C35.2104 41.243 31.5399 39.7251 27.7132 39.7251C23.8865 39.7251 20.2161 41.243 17.5072 43.9458C17.2141 44.2389 17.0495 44.6363 17.0496 45.0507C17.0496 45.4652 17.2142 45.8626 17.5073 46.1556C17.8003 46.4486 18.1978 46.6132 18.6122 46.6132C19.0266 46.6132 19.4241 46.4486 19.7171 46.1555Z" fill="#02397A"/>
<path d="M41.2051 40.6597C41.4981 40.9528 41.8955 41.1174 42.3099 41.1175C42.7243 41.1175 43.1218 40.9529 43.4148 40.6598C43.7079 40.3668 43.8725 39.9694 43.8725 39.555C43.8726 39.1406 43.7079 38.7431 43.4149 38.4501C39.2473 34.2918 33.6005 31.9565 27.7132 31.9565C21.826 31.9565 16.1791 34.2918 12.0116 38.4501C11.7185 38.7431 11.5539 39.1406 11.554 39.555C11.554 39.9694 11.7186 40.3668 12.0117 40.6598C12.3047 40.9529 12.7022 41.1175 13.1166 41.1175C13.531 41.1174 13.9284 40.9528 14.2214 40.6597C17.8025 37.0868 22.6546 35.0802 27.7132 35.0802C32.7719 35.0802 37.624 37.0868 41.2051 40.6597Z" fill="#02397A"/>
<path d="M84.4053 59.9961H80.2483L77.4156 17.409C77.3894 17.0135 77.2137 16.6427 76.9242 16.3718C76.6347 16.1009 76.253 15.9502 75.8566 15.9502H70.8601C70.4577 15.9502 70.0708 16.1054 69.78 16.3836C69.4892 16.6618 69.3169 17.0414 69.2991 17.4435L67.4122 59.9962H21.454C20.3828 59.9974 19.3557 60.4236 18.5982 61.1811C17.8407 61.9386 17.4146 62.9656 17.4133 64.0369V75.2537C17.4145 76.325 17.8407 77.3521 18.5982 78.1096C19.3557 78.8671 20.3827 79.2933 21.454 79.2945H28.5179V82.4869C28.5179 82.9013 28.6825 83.2987 28.9755 83.5918C29.2686 83.8848 29.666 84.0494 30.0804 84.0494C30.4948 84.0494 30.8922 83.8848 31.1853 83.5918C31.4783 83.2987 31.6429 82.9013 31.6429 82.4869V79.2945H74.2165V82.4869C74.2165 82.9013 74.3811 83.2987 74.6741 83.5918C74.9671 83.8848 75.3646 84.0494 75.779 84.0494C76.1934 84.0494 76.5908 83.8848 76.8838 83.5918C77.1768 83.2987 77.3415 82.9013 77.3415 82.4869V79.2945H84.4053C85.4766 79.2932 86.5037 78.8671 87.2612 78.1096C88.0187 77.3521 88.4448 76.325 88.446 75.2537V64.0369C88.4448 62.9656 88.0187 61.9385 87.2612 61.181C86.5037 60.4235 85.4766 59.9974 84.4053 59.9961ZM76.1095 44.8577L76.3779 48.8931H71.0326L71.2115 44.8577H76.1095ZM70.8835 52.2549H76.6015L77.1164 59.9961H70.5403L70.8835 52.2549ZM85.321 75.2537C85.3208 75.4965 85.2242 75.7293 85.0525 75.901C84.8809 76.0726 84.6481 76.1692 84.4053 76.1695H21.454C21.2112 76.1692 20.9785 76.0726 20.8068 75.901C20.6352 75.7293 20.5386 75.4965 20.5383 75.2537V64.0369C20.5386 63.7941 20.6352 63.5614 20.8068 63.3897C20.9785 63.218 21.2112 63.1214 21.454 63.1211H84.4053C84.6481 63.1214 84.8809 63.218 85.0525 63.3897C85.2242 63.5614 85.3208 63.7941 85.321 64.0369V75.2537Z" fill="#02397A"/>
<path d="M57.1184 70.9233H40.3456C39.4633 70.9233 38.748 71.6386 38.748 72.5209V72.5209C38.748 73.4032 39.4633 74.1185 40.3456 74.1185H57.1184C58.0007 74.1185 58.716 73.4032 58.716 72.5209V72.5209C58.716 71.6386 58.0007 70.9233 57.1184 70.9233Z" fill="#02397A"/>
<path d="M80.7393 70.9585H75.2419C74.8275 70.9585 74.4301 71.1231 74.1371 71.4161C73.8441 71.7092 73.6794 72.1066 73.6794 72.521C73.6794 72.9354 73.8441 73.3328 74.1371 73.6258C74.4301 73.9189 74.8275 74.0835 75.2419 74.0835H80.7393C81.1537 74.0835 81.5511 73.9189 81.8442 73.6258C82.1372 73.3328 82.3018 72.9354 82.3018 72.521C82.3018 72.1066 82.1372 71.7092 81.8442 71.4161C81.5511 71.1231 81.1537 70.9585 80.7393 70.9585Z" fill="#02397A"/>
<path d="M69.0206 70.9585H63.5232C63.1088 70.9585 62.7114 71.1231 62.4183 71.4161C62.1253 71.7092 61.9607 72.1066 61.9607 72.521C61.9607 72.9354 62.1253 73.3328 62.4183 73.6258C62.7114 73.9189 63.1088 74.0835 63.5232 74.0835H69.0206C69.435 74.0835 69.8324 73.9189 70.1254 73.6258C70.4184 73.3328 70.5831 72.9354 70.5831 72.521C70.5831 72.1066 70.4184 71.7092 70.1254 71.4161C69.8324 71.1231 69.435 70.9585 69.0206 70.9585Z" fill="#02397A"/>
<path d="M27.7132 70.4289C28.8687 70.4289 29.8054 69.4922 29.8054 68.3368C29.8054 67.1813 28.8687 66.2446 27.7132 66.2446C26.5578 66.2446 25.6211 67.1813 25.6211 68.3368C25.6211 69.4922 26.5578 70.4289 27.7132 70.4289Z" fill="#02397A"/>
</svg>
