<svg width="37" height="38" viewBox="0 0 37 38" fill="none" xmlns="http://www.w3.org/2000/svg">
<path d="M12.3286 19.4194H12.6696V14.8557V14.4036C12.6696 14.1524 12.4692 13.9321 12.2337 13.9321H5.23055C4.99501 13.9321 4.79462 14.1485 4.79462 14.4036V14.8557V19.4194H5.13563C5.16727 19.4194 5.19891 19.4194 5.23055 19.4194H12.2372C12.2688 19.4194 12.3005 19.4194 12.3286 19.4194Z" fill="#90C72E"/>
<path d="M14.6313 7.16961H13.5485V5.14861C13.5485 4.82788 13.2919 4.58057 12.9895 4.58057H4.47469C4.17235 4.58057 3.91571 4.82788 3.91571 5.14861V7.16961H2.8329C1.85204 7.16961 0.857117 8.22842 0.857117 9.27949V13.9475C0.857117 14.9986 1.85204 16.3317 2.8329 16.3317C2.8329 16.3317 3.30048 16.3317 3.47626 16.3317C3.64852 16.3317 3.66962 16.3317 3.66962 15.7907V14.1291C3.66962 13.4026 4.20399 12.8926 4.82626 12.8926H12.7013C13.3235 12.8926 13.7946 13.7156 13.7946 14.4383V15.7907C13.7946 16.3317 13.7981 16.3317 13.9704 16.3317C14.1462 16.3317 14.6278 16.3317 14.6278 16.3317C15.6087 16.3317 16.6036 15.3077 16.6036 14.2566V9.27949C16.6071 8.22842 15.6122 7.16961 14.6313 7.16961ZM13.7946 9.5268C13.4852 9.5268 13.2321 9.24858 13.2321 8.90852C13.2321 8.56847 13.4852 8.29024 13.7946 8.29024C14.104 8.29024 14.3571 8.56847 14.3571 8.90852C14.3571 9.24858 14.104 9.5268 13.7946 9.5268Z" fill="#90C72E"/>
<path d="M35.9713 6.01702V20.3036C35.9713 21.0433 35.3457 21.6429 34.574 21.6429H24.6214C23.8497 21.6429 23.2241 21.0433 23.2241 20.3036V6.01702C23.2241 5.27735 23.8497 4.67773 24.6214 4.67773H34.574C35.3457 4.67773 35.9713 5.27735 35.9713 6.01702Z" fill="#90C72E"/>
<path d="M34.3471 12.5362V7.65348C34.3471 7.40692 34.1386 7.20703 33.8813 7.20703H25.3139C25.0566 7.20703 24.8481 7.40692 24.8481 7.65348V12.5362C24.8481 12.7828 25.0566 12.9827 25.3139 12.9827H33.8813C34.1386 12.9827 34.3471 12.7828 34.3471 12.5362Z" fill="#EEEFEF"/>
<path d="M27.4223 14.6695V16.1412C27.4223 16.415 27.1908 16.6369 26.9051 16.6369H25.3653C25.0796 16.6369 24.8481 16.415 24.8481 16.1412V14.6695C24.8481 14.3957 25.0796 14.1738 25.3653 14.1738H26.9051C27.1908 14.1738 27.4223 14.3957 27.4223 14.6695Z" fill="#EEEFEF"/>
<path d="M34.3472 14.6695V16.1412C34.3472 16.415 34.1157 16.6369 33.83 16.6369H32.2902C32.0045 16.6369 31.773 16.415 31.773 16.1412V14.6695C31.773 14.3957 32.0045 14.1738 32.2902 14.1738H33.83C34.1157 14.1738 34.3472 14.3957 34.3472 14.6695Z" fill="#EEEFEF"/>
<path d="M30.8847 14.6695V16.1412C30.8847 16.415 30.6532 16.6369 30.3675 16.6369H28.8277C28.542 16.6369 28.3105 16.415 28.3105 16.1412V14.6695C28.3105 14.3957 28.542 14.1738 28.8277 14.1738H30.3675C30.6532 14.1738 30.8847 14.3957 30.8847 14.6695Z" fill="#EEEFEF"/>
<path d="M27.4223 18.0655V19.5371C27.4223 19.8109 27.1908 20.0328 26.9051 20.0328H25.3653C25.0796 20.0328 24.8481 19.8109 24.8481 19.5371V18.0655C24.8481 17.7917 25.0796 17.5698 25.3653 17.5698H26.9051C27.1908 17.5698 27.4223 17.7917 27.4223 18.0655Z" fill="#EEEFEF"/>
<path d="M34.3472 18.0655V19.5371C34.3472 19.8109 34.1157 20.0328 33.83 20.0328H32.2902C32.0045 20.0328 31.773 19.8109 31.773 19.5371V18.0655C31.773 17.7917 32.0045 17.5698 32.2902 17.5698H33.83C34.1157 17.5698 34.3472 17.7917 34.3472 18.0655Z" fill="#EEEFEF"/>
<path d="M30.8847 18.0655V19.5371C30.8847 19.8109 30.6532 20.0328 30.3675 20.0328H28.8277C28.542 20.0328 28.3105 19.8109 28.3105 19.5371V18.0655C28.3105 17.7917 28.542 17.5698 28.8277 17.5698H30.3675C30.6532 17.5698 30.8847 17.7917 30.8847 18.0655Z" fill="#EEEFEF"/>
<path d="M33.2748 5.96071V0.421558C33.2748 0.300774 33.1224 0.240354 33.0333 0.325711L32.7551 0.592445C32.6362 0.706407 32.4435 0.706407 32.3246 0.592445L32.0201 0.300659C31.9012 0.186697 31.7085 0.186697 31.5896 0.300659L31.2848 0.592788C31.1661 0.706579 30.9736 0.706751 30.8547 0.593132L30.5479 0.300029C30.429 0.18641 30.2365 0.186525 30.1178 0.300373L29.813 0.592445C29.6941 0.706407 29.5014 0.706407 29.3825 0.592445L29.078 0.300659C28.9591 0.186754 28.7664 0.186754 28.6475 0.300659L28.3428 0.592731C28.224 0.706521 28.0316 0.706693 27.9127 0.593075L27.6059 0.299972C27.4869 0.186353 27.2945 0.186468 27.1757 0.300316L26.8709 0.592387C26.752 0.70635 26.5593 0.70635 26.4404 0.592387L26.1622 0.325653C26.073 0.240296 25.9207 0.300774 25.9207 0.421501V5.96066L33.2748 5.96071Z" fill="#EEEFEF"/>
<path d="M33.8814 6.9917H25.3139C24.9334 6.9917 24.6238 7.28841 24.6238 7.65312V12.5358C24.6238 12.9005 24.9334 13.1973 25.3139 13.1973H33.8814C34.2618 13.1973 34.5714 12.9005 34.5714 12.5358V7.65312C34.5714 7.28841 34.2618 6.9917 33.8814 6.9917ZM34.1228 12.5358C34.1228 12.6635 34.0144 12.7673 33.8814 12.7673H25.3139C25.1808 12.7673 25.0724 12.6634 25.0724 12.5358V7.65312C25.0724 7.52545 25.1808 7.42164 25.3139 7.42164H33.8814C34.0144 7.42164 34.1228 7.52551 34.1228 7.65312V12.5358Z" fill="#90C72E"/>
<path d="M26.9051 13.959H25.3652C24.9564 13.959 24.6238 14.2778 24.6238 14.6696V16.1412C24.6238 16.5331 24.9565 16.8519 25.3652 16.8519H26.9051C27.3139 16.8519 27.6465 16.5331 27.6465 16.1412V14.6696C27.6466 14.2778 27.3139 13.959 26.9051 13.959ZM27.198 16.1413C27.198 16.2961 27.0666 16.422 26.9051 16.422H25.3653C25.2038 16.422 25.0725 16.2961 25.0725 16.1413V14.6697C25.0725 14.5149 25.2038 14.389 25.3653 14.389H26.9051C27.0666 14.389 27.198 14.5149 27.198 14.6697V16.1413Z" fill="#90C72E"/>
<path d="M33.83 13.959H32.2902C31.8813 13.959 31.5487 14.2778 31.5487 14.6696V16.1412C31.5487 16.5331 31.8814 16.8519 32.2902 16.8519H33.83C34.2388 16.8519 34.5714 16.5331 34.5714 16.1412V14.6696C34.5714 14.2778 34.2388 13.959 33.83 13.959ZM34.1228 16.1413C34.1228 16.2961 33.9915 16.422 33.83 16.422H32.2902C32.1287 16.422 31.9973 16.2961 31.9973 16.1413V14.6697C31.9973 14.5149 32.1287 14.389 32.2902 14.389H33.83C33.9915 14.389 34.1228 14.5149 34.1228 14.6697V16.1413Z" fill="#90C72E"/>
<path d="M30.3676 13.959H28.8278C28.4189 13.959 28.0863 14.2778 28.0863 14.6696V16.1412C28.0863 16.5331 28.419 16.8519 28.8278 16.8519H30.3676C30.7764 16.8519 31.109 16.5331 31.109 16.1412V14.6696C31.109 14.2778 30.7764 13.959 30.3676 13.959ZM30.6604 16.1413C30.6604 16.2961 30.5291 16.422 30.3676 16.422H28.8278C28.6663 16.422 28.5349 16.2961 28.5349 16.1413V14.6697C28.5349 14.5149 28.6663 14.389 28.8278 14.389H30.3676C30.5291 14.389 30.6604 14.5149 30.6604 14.6697V16.1413Z" fill="#90C72E"/>
<path d="M26.9051 17.354H25.3652C24.9564 17.354 24.6238 17.6728 24.6238 18.0647V19.5363C24.6238 19.9281 24.9565 20.2469 25.3652 20.2469H26.9051C27.3139 20.2469 27.6465 19.9281 27.6465 19.5363V18.0647C27.6466 17.6728 27.3139 17.354 26.9051 17.354ZM27.198 19.5363C27.198 19.6911 27.0666 19.817 26.9051 19.817H25.3653C25.2038 19.817 25.0725 19.6911 25.0725 19.5363V18.0647C25.0725 17.9099 25.2038 17.784 25.3653 17.784H26.9051C27.0666 17.784 27.198 17.9099 27.198 18.0647V19.5363Z" fill="#90C72E"/>
<path d="M33.83 17.354H32.2902C31.8813 17.354 31.5487 17.6728 31.5487 18.0647V19.5363C31.5487 19.9281 31.8814 20.2469 32.2902 20.2469H33.83C34.2388 20.2469 34.5714 19.9281 34.5714 19.5363V18.0647C34.5714 17.6728 34.2388 17.354 33.83 17.354ZM34.1228 19.5363C34.1228 19.6911 33.9915 19.817 33.83 19.817H32.2902C32.1287 19.817 31.9973 19.6911 31.9973 19.5363V18.0647C31.9973 17.9099 32.1287 17.784 32.2902 17.784H33.83C33.9915 17.784 34.1228 17.9099 34.1228 18.0647V19.5363Z" fill="#90C72E"/>
<path d="M30.3676 17.354H28.8278C28.4189 17.354 28.0863 17.6728 28.0863 18.0647V19.5363C28.0863 19.9281 28.419 20.2469 28.8278 20.2469H30.3676C30.7764 20.2469 31.109 19.9281 31.109 19.5363V18.0647C31.109 17.6728 30.7764 17.354 30.3676 17.354ZM30.6604 19.5363C30.6604 19.6911 30.5291 19.817 30.3676 19.817H28.8278C28.6663 19.817 28.5349 19.6911 28.5349 19.5363V18.0647C28.5349 17.9099 28.6663 17.784 28.8278 17.784H30.3676C30.5291 17.784 30.6604 17.9099 30.6604 18.0647V19.5363Z" fill="#90C72E"/>
<path d="M29.5996 9.15376C29.8134 9.15376 29.9874 9.32224 29.9874 9.52924C29.9874 9.6479 30.0878 9.74421 30.2117 9.74421C30.3356 9.74421 30.436 9.6479 30.436 9.52924C30.436 9.15944 30.1754 8.84782 29.8221 8.75363V8.672C29.8221 8.55334 29.7217 8.45703 29.5978 8.45703C29.4739 8.45703 29.3735 8.55334 29.3735 8.672V8.7542C29.0197 8.84913 28.7592 9.16024 28.7592 9.52918C28.7592 9.96623 29.1279 10.3222 29.5842 10.3301C29.5888 10.3304 29.5931 10.3314 29.5978 10.3314C29.5991 10.3314 29.6003 10.331 29.6016 10.331C29.8145 10.3321 29.9874 10.5 29.9874 10.7064C29.9874 10.9112 29.8134 11.0779 29.5996 11.0779C29.3836 11.0779 29.2078 10.9112 29.2078 10.7064C29.2078 10.5877 29.1075 10.4914 28.9836 10.4914C28.8596 10.4914 28.7593 10.5877 28.7593 10.7064C28.7593 11.0736 29.0198 11.3831 29.3736 11.4776V11.5178C29.3736 11.6365 29.4739 11.7328 29.5979 11.7328C29.7218 11.7328 29.8221 11.6365 29.8221 11.5178V11.4782C30.1755 11.3845 30.436 11.0744 30.436 10.7064C30.436 10.2631 30.0621 9.90231 29.6019 9.90111C29.6006 9.90111 29.5992 9.90071 29.5979 9.90071C29.5977 9.90071 29.5975 9.90076 29.5973 9.90076C29.3823 9.89956 29.2078 9.73355 29.2078 9.5293C29.2078 9.32224 29.3836 9.15376 29.5996 9.15376Z" fill="#90C72E"/>
<path d="M33.2733 0.0975674C33.1363 0.0432805 32.9798 0.0729178 32.8746 0.173581L32.5965 0.440314C32.5651 0.470238 32.5142 0.470238 32.4831 0.440314L32.1787 0.148529C31.9725 -0.0490703 31.6371 -0.0490703 31.431 0.148529L31.1262 0.440601C31.0951 0.470525 31.0443 0.470525 31.013 0.440601L30.7063 0.147555C30.5001 -0.0493568 30.1649 -0.0492421 29.9592 0.148243L29.6544 0.440314C29.6232 0.470124 29.5723 0.470124 29.541 0.440314L29.2366 0.148529C29.0305 -0.0490703 28.695 -0.0490703 28.489 0.148529L28.1842 0.440601C28.1531 0.470525 28.1023 0.470525 28.071 0.440601L27.7642 0.147555C27.5581 -0.0493568 27.2228 -0.0492421 27.0172 0.148243L26.7124 0.440314C26.6812 0.470238 26.6302 0.470238 26.5991 0.440314L26.3207 0.173409C26.2158 0.0728032 26.0594 0.0429939 25.9221 0.0975674C25.785 0.152026 25.6964 0.279231 25.6964 0.421397V4.46213H24.6216C23.7274 4.46213 23 5.15938 23 6.01633V20.303C23 21.1599 23.7274 21.8571 24.6216 21.8571H34.5741C35.4683 21.8571 36.1957 21.1599 36.1957 20.303V6.01633C36.1957 5.15938 35.4683 4.46213 34.5741 4.46213H33.499V0.421397C33.499 0.279231 33.4104 0.152026 33.2733 0.0975674ZM26.1448 0.61315L26.2817 0.74431C26.4877 0.941909 26.8231 0.941909 27.0294 0.74431L27.3341 0.452238C27.3652 0.422314 27.4161 0.422028 27.4474 0.452124L27.7541 0.74517C27.9603 0.942081 28.2953 0.942081 28.5011 0.744596L28.8059 0.452525C28.8372 0.422601 28.888 0.422601 28.9193 0.452525L29.2237 0.74431C29.4297 0.941909 29.7652 0.941909 29.9714 0.74431L30.2762 0.452238C30.3073 0.422314 30.3582 0.422143 30.3893 0.452124L30.6961 0.74517C30.9023 0.942081 31.2374 0.942081 31.4432 0.744596L31.748 0.452525C31.7793 0.422429 31.8302 0.422716 31.8614 0.452525L32.1657 0.74431C32.3718 0.941909 32.7072 0.941909 32.9135 0.74431L33.0502 0.61315V5.74553H26.1448V0.61315ZM34.5739 4.89213C35.2207 4.89213 35.7469 5.39653 35.7469 6.01639V20.303C35.7469 20.9229 35.2207 21.4273 34.5739 21.4273H24.6213C23.9745 21.4273 23.4483 20.9229 23.4483 20.303V6.01633C23.4483 5.39647 23.9745 4.89207 24.6213 4.89207H25.6962V5.74553H24.8481C24.7242 5.74553 24.6238 5.84183 24.6238 5.96049C24.6238 6.07916 24.7242 6.17546 24.8481 6.17546C26.8103 6.17546 32.3056 6.17546 34.347 6.17546C34.471 6.17546 34.5713 6.07916 34.5713 5.96049C34.5713 5.84183 34.471 5.74553 34.347 5.74553H33.4989V4.89207L34.5739 4.89213Z" fill="#90C72E"/>
<path d="M30.47 3.50488H27.1805C27.0565 3.50488 26.9562 3.60119 26.9562 3.71985C26.9562 3.83852 27.0565 3.93482 27.1805 3.93482H30.47C30.594 3.93482 30.6943 3.83852 30.6943 3.71985C30.6943 3.60119 30.5939 3.50488 30.47 3.50488Z" fill="#90C72E"/>
<path d="M32.0149 1.84961H27.1805C27.0565 1.84961 26.9562 1.94592 26.9562 2.06458C26.9562 2.18324 27.0565 2.27955 27.1805 2.27955H32.0149C32.1388 2.27955 32.2392 2.18324 32.2392 2.06458C32.2392 1.94592 32.1388 1.84961 32.0149 1.84961Z" fill="#90C72E"/>
<path d="M7.33331 30.4167H17.8333V32.5833H14.3333V34.75H23.6666V32.5833H20.1666V30.4167H30.6666V15.25H7.33331V30.4167Z" fill="#90C72E"/>
</svg>
