<svg width="36" height="36" viewBox="0 0 36 36" fill="none" xmlns="http://www.w3.org/2000/svg">
<path d="M27.1722 35.5509H17.7679C17.5206 35.5496 17.2788 35.4787 17.0699 35.3465C16.861 35.2142 16.6935 35.0259 16.5866 34.803C16.4796 34.5801 16.4375 34.3316 16.465 34.0859C16.4925 33.8402 16.5886 33.6072 16.7422 33.4134C17.1558 32.8938 17.3797 32.2486 17.3767 31.5844C17.3634 30.8104 17.0465 30.0726 16.4944 29.5299C15.9423 28.9872 15.1991 28.6831 14.4249 28.6831C13.6508 28.6831 12.9076 28.9872 12.3555 29.5299C11.8034 30.0726 11.4865 30.8104 11.4731 31.5844C11.4702 32.2486 11.6941 32.8938 12.1077 33.4134C12.2619 33.6079 12.3581 33.8419 12.3852 34.0885C12.4123 34.3351 12.3693 34.5844 12.261 34.8077C12.1528 35.031 11.9837 35.2192 11.7733 35.3507C11.5629 35.4821 11.3196 35.5516 11.0715 35.5509H1.66718C1.31752 35.5509 0.982195 35.412 0.734954 35.1648C0.487714 34.9176 0.348816 34.5822 0.348816 34.2326V22.109C0.348816 21.8641 0.416994 21.6241 0.545712 21.4159C0.674429 21.2076 0.8586 21.0393 1.07759 20.9298C1.29657 20.8203 1.54173 20.7739 1.78557 20.7959C2.02942 20.8179 2.26232 20.9074 2.45819 21.0543C2.89666 21.3839 3.4183 21.5848 3.96458 21.6345C4.51086 21.6842 5.06019 21.5807 5.55096 21.3357C6.04172 21.0906 6.45451 20.7137 6.74302 20.2472C7.03153 19.7806 7.18436 19.2429 7.18436 18.6944C7.18436 18.1459 7.03153 17.6082 6.74302 17.1416C6.45451 16.6751 6.04172 16.2982 5.55096 16.0531C5.06019 15.8081 4.51086 15.7046 3.96458 15.7543C3.4183 15.804 2.89666 16.0049 2.45819 16.3345C2.26232 16.4814 2.02942 16.5709 1.78557 16.5929C1.54173 16.6149 1.29657 16.5685 1.07759 16.459C0.8586 16.3495 0.674429 16.1812 0.545712 15.973C0.416994 15.7647 0.348816 15.5247 0.348816 15.2799V8.732C0.348816 8.38235 0.487714 8.04702 0.734954 7.79978C0.982195 7.55254 1.31752 7.41364 1.66718 7.41364H9.06405C8.81405 6.57919 8.76257 5.69785 8.91371 4.83996C9.06485 3.98207 9.41443 3.17139 9.93455 2.47261C10.4547 1.77383 11.1309 1.2063 11.9093 0.815309C12.6878 0.424322 13.5468 0.220703 14.4179 0.220703C15.289 0.220703 16.148 0.424322 16.9265 0.815309C17.7049 1.2063 18.3812 1.77383 18.9013 2.47261C19.4214 3.17139 19.771 3.98207 19.9221 4.83996C20.0732 5.69785 20.0218 6.57919 19.7718 7.41364H27.1686C27.5183 7.41364 27.8536 7.55254 28.1009 7.79978C28.3481 8.04702 28.487 8.38235 28.487 8.732V13.319C29.3183 13.0834 30.193 13.0437 31.0422 13.2031C31.8914 13.3626 32.6921 13.7167 33.3814 14.2378C34.0707 14.7588 34.6298 15.4326 35.0147 16.2062C35.3997 16.9798 35.6 17.8321 35.6 18.6962C35.6 19.5602 35.3997 20.4125 35.0147 21.1861C34.6298 21.9597 34.0707 22.6335 33.3814 23.1546C32.6921 23.6756 31.8914 24.0298 31.0422 24.1892C30.193 24.3486 29.3183 24.3089 28.487 24.0733V34.2326C28.487 34.5816 28.3486 34.9164 28.1021 35.1636C27.8556 35.4107 27.5212 35.55 27.1722 35.5509ZM19.8491 32.9142H25.8538V21.8822C25.8538 21.6277 25.9275 21.3786 26.0659 21.1651C26.2043 20.9515 26.4016 20.7826 26.6339 20.6787C26.8663 20.5748 27.1237 20.5404 27.3752 20.5796C27.6266 20.6188 27.8614 20.7299 28.0511 20.8996C28.4761 21.2786 29.0018 21.5266 29.5646 21.6137C30.1275 21.7008 30.7035 21.6232 31.2232 21.3903C31.7429 21.1574 32.1842 20.7791 32.4938 20.3011C32.8034 19.8231 32.9682 19.2657 32.9682 18.6962C32.9682 18.1266 32.8034 17.5693 32.4938 17.0912C32.1842 16.6132 31.7429 16.2349 31.2232 16.002C30.7035 15.7691 30.1275 15.6916 29.5646 15.7786C29.0018 15.8657 28.4761 16.1137 28.0511 16.4927C27.8614 16.6624 27.6266 16.7735 27.3752 16.8127C27.1237 16.8519 26.8663 16.8175 26.6339 16.7136C26.4016 16.6097 26.2043 16.4408 26.0659 16.2272C25.9275 16.0137 25.8538 15.7646 25.8538 15.5101V10.0504H17.5332C17.276 10.0503 17.0244 9.97502 16.8094 9.83377C16.5945 9.69251 16.4255 9.49145 16.3234 9.25537C16.2213 9.01929 16.1905 8.7585 16.2348 8.50512C16.279 8.25174 16.3964 8.01684 16.5725 7.82937C16.9676 7.40976 17.2313 6.88369 17.331 6.31603C17.4306 5.74837 17.3619 5.16396 17.1334 4.63486C16.9049 4.10577 16.5265 3.65514 16.0449 3.33855C15.5633 3.02196 14.9995 2.85327 14.4232 2.85327C13.8468 2.85327 13.2831 3.02196 12.8015 3.33855C12.3199 3.65514 11.9415 4.10577 11.713 4.63486C11.4844 5.16396 11.4157 5.74837 11.5154 6.31603C11.6151 6.88369 11.8787 7.40976 12.2738 7.82937C12.4499 8.01684 12.5673 8.25174 12.6116 8.50512C12.6559 8.7585 12.6251 9.01929 12.5229 9.25537C12.4208 9.49145 12.2519 9.69251 12.0369 9.83377C11.822 9.97502 11.5704 10.0503 11.3132 10.0504H2.98905V13.2461C3.39863 13.1537 3.81722 13.1071 4.2371 13.1072C5.02352 13.1081 5.80091 13.2749 6.51846 13.5967C7.236 13.9186 7.87754 14.3883 8.40114 14.975C8.92474 15.5618 9.31861 16.2525 9.55701 17.0019C9.79541 17.7513 9.87296 18.5426 9.78461 19.3241C9.69625 20.1055 9.44397 20.8595 9.04427 21.5368C8.64456 22.2141 8.10642 22.7994 7.46502 23.2544C6.82362 23.7095 6.09341 24.0241 5.32212 24.1776C4.55083 24.3311 3.75581 24.3201 2.98905 24.1454V32.9142H8.99374C8.79164 32.0913 8.77931 31.2332 8.95768 30.4048C9.13606 29.5764 9.50046 28.7994 10.0233 28.1326C10.5462 27.4658 11.2139 26.9266 11.9758 26.5558C12.7378 26.185 13.574 25.9923 14.4214 25.9923C15.2688 25.9923 16.1051 26.185 16.867 26.5558C17.629 26.9266 18.2966 27.4658 18.8195 28.1326C19.3424 28.7994 19.7068 29.5764 19.8852 30.4048C20.0635 31.2332 20.0512 32.0913 19.8491 32.9142Z" fill="#EEEFEF"/>
</svg>
