<svg width="160" height="160" viewBox="0 0 160 160" fill="none" xmlns="http://www.w3.org/2000/svg">
<path d="M146.333 58.1402L146.167 57.0202L145.993 57.0602C144.809 51.5204 142.08 46.4293 138.122 42.3758C134.165 38.3224 129.14 35.4723 123.631 34.1554C118.121 32.8384 112.351 33.1085 106.988 34.9342C101.625 36.76 96.8891 40.0668 93.3275 44.4721C89.7658 48.8774 87.5243 54.2012 86.8622 59.8273C86.2001 65.4535 87.1446 71.1522 89.5863 76.264C92.028 81.3757 95.8671 85.6917 100.66 88.7125C105.452 91.7333 111.002 93.3354 116.667 93.3335C118.153 93.3335 119.58 93.1068 121 92.9002C120.54 94.4468 120.067 96.0202 119.307 97.4335C118.547 99.4868 117.36 101.267 116.18 103.06C115.193 105 113.453 106.313 112.173 107.973C110.833 109.587 109.007 110.66 107.56 112C106.14 113.4 104.28 114.1 102.8 115.087C101.253 115.973 99.9067 116.953 98.4667 117.42L94.8734 118.9L91.7134 120.213L94.94 133.14L98.92 132.18C100.193 131.86 101.747 131.487 103.513 131.04C105.32 130.707 107.247 129.793 109.393 128.96C111.507 128.007 113.967 127.373 116.247 125.847C118.54 124.394 121.187 123.18 123.52 121.233C125.78 119.227 128.507 117.487 130.52 114.94C132.72 112.553 134.893 110.047 136.58 107.193C138.533 104.473 139.86 101.487 141.26 98.5335C142.527 95.5802 143.547 92.5602 144.38 89.6268C145.96 83.7468 146.667 78.1602 146.94 73.3802C147.167 68.5935 147.033 64.6135 146.753 61.7335C146.66 60.5308 146.52 59.3321 146.333 58.1402ZM73 58.1402L72.8334 57.0202L72.66 57.0602C71.4754 51.5204 68.7465 46.4293 64.789 42.3758C60.8315 38.3224 55.8071 35.4723 50.2973 34.1554C44.7875 32.8384 39.0175 33.1085 33.6547 34.9342C28.292 36.76 23.5558 40.0668 19.9941 44.4721C16.4325 48.8774 14.1909 54.2012 13.5288 59.8273C12.8668 65.4535 13.8112 71.1522 16.2529 76.264C18.6946 81.3757 22.5338 85.6917 27.3262 88.7125C32.1186 91.7333 37.6683 93.3354 43.3333 93.3335C44.82 93.3335 46.2467 93.1068 47.6667 92.9002C47.2067 94.4468 46.7333 96.0202 45.9734 97.4335C45.2133 99.4868 44.0267 101.267 42.8467 103.06C41.86 105 40.12 106.313 38.84 107.973C37.5 109.587 35.6733 110.66 34.2267 112C32.8067 113.4 30.9467 114.1 29.4667 115.087C27.92 115.973 26.5733 116.953 25.1334 117.42L21.54 118.9C19.5333 119.72 18.3867 120.2 18.3867 120.2L21.6134 133.127L25.5934 132.167C26.8667 131.847 28.42 131.473 30.1867 131.027C31.9933 130.693 33.92 129.78 36.0667 128.947C38.18 127.993 40.64 127.36 42.92 125.833C45.2134 124.38 47.86 123.167 50.1933 121.22C52.4534 119.214 55.18 117.473 57.1934 114.927C59.3934 112.54 61.5667 110.033 63.2533 107.18C65.2067 104.46 66.5334 101.473 67.9333 98.5202C69.2 95.5668 70.22 92.5468 71.0534 89.6135C72.6334 83.7335 73.34 78.1468 73.6134 73.3668C73.84 68.5802 73.7067 64.6002 73.4267 61.7202C73.3271 60.5221 73.1848 59.328 73 58.1402Z" fill="#EEEFEF" fill-opacity="0.21"/>
</svg>
